SplineFontDB: 3.0
FontName: Nika-Regular
FullName: Nika Regular
FamilyName: Nika
Weight: Regular
Copyright: Copyright (c) 2016 Copyright Holder (info@font-store.ir), with Reserved Font Name "Farbod"
UComments: "2015-5-13: Created with FontForge (http://fontforge.org)"
Version: Version:0.0.5;RFB:1.2.5;Building:2016-03-19 06:09:42.176777
FONDName: RITA
ItalicAngle: 0
UnderlinePosition: 500
UnderlineWidth: 59
Ascent: 800
Descent: 500
InvalidEm: 0
sfntRevision: 0x00010000
LayerCount: 2
Layer: 0 0 "Back" 1
Layer: 1 0 "Fore" 0
PreferredKerning: 4
XUID: [1021 828 -1901974348 32649]
StyleMap: 0x0040
FSType: 8
OS2Version: 3
OS2_WeightWidthSlopeOnly: 0
OS2_UseTypoMetrics: 0
CreationTime: 1431477301
ModificationTime: 1458355608
PfmFamily: 17
TTFWeight: 400
TTFWidth: 5
LineGap: 0
VLineGap: 0
Panose: 2 0 5 3 0 0 0 0 0 0
OS2TypoAscent: 800
OS2TypoAOffset: 0
OS2TypoDescent: -500
OS2TypoDOffset: 0
OS2TypoLinegap: 0
OS2WinAscent: 1100
OS2WinAOffset: 0
OS2WinDescent: 700
OS2WinDOffset: 0
HheadAscent: 1100
HheadAOffset: 0
HheadDescent: -700
HheadDOffset: 0
OS2SubXSize: 780
OS2SubYSize: 839
OS2SubXOff: -107
OS2SubYOff: 168
OS2SupXSize: 780
OS2SupYSize: 839
OS2SupXOff: 369
OS2SupYOff: 575
OS2StrikeYSize: 59
OS2StrikeYPos: 310
OS2Vendor: 'RITA'
MacStyle: 0
Lookup: 4 9 1 "'rlig' Required Ligatures in Arabic lookup 4" { "'rlig' Required Ligatures in Arabic lookup 4-1"  } ['rlig' ('DFLT' <'dflt' > 'arab' <'dflt' > ) ]
Lookup: 1 9 0 "'medi' Medial Forms in Arabic lookup 2" { "'medi' Medial Forms in Arabic lookup 2-1"  } ['medi' ('DFLT' <'dflt' > 'arab' <'dflt' > ) ]
Lookup: 1 9 0 "'init' Initial Forms in Latin lookup 0" { "'init' Initial Forms in Latin lookup 0-1"  } ['init' ('DFLT' <'dflt' > 'arab' <'dflt' > ) ]
Lookup: 1 9 0 "'isol' Isolated Forms in Latin lookup 1" { "'isol' Isolated Forms in Latin lookup 1-1"  } ['isol' ('DFLT' <'dflt' > 'arab' <'dflt' > ) ]

StartChar: _.alef.isol
Encoding: 65536 -1 0
GlifName: _.alef.isol
Width: 217
VWidth: 1304
GlyphClass: 2
Flags: HMW
LayerCount: 2
Fore
SplineSet
64 718 m 0
 64 752 72 762 141 800 c 0
 148 800 153 798 153 789 c 2
 153 -0 l 1
 136 -13 115 -25 102 -25 c 0
 94 -25 89 -21 89 -10 c 2
 64 700 l 2
 64 707 64 713 64 718 c 0
EndSplineSet
Colour: ffda6b
EndChar

StartChar: _.alef.fina
Encoding: 65537 -1 1
GlifName: _.alef.fina
Width: 313
VWidth: 1304
GlyphClass: 2
Flags: HMW
LayerCount: 2
Fore
SplineSet
153 162 m 2
 153 106 261 100 313 100 c 1
 313 -0 l 1
 281 -0 l 2
 194 0 143 22 115 55 c 0
 79 97 78 155 78 204 c 1
 64 700 l 2
 64 707 64 713 64 718 c 0
 64 752 72 762 141 800 c 0
 148 800 153 798 153 789 c 2
 153 162 l 2
EndSplineSet
Colour: ffda6b
EndChar

StartChar: _.alef_kotah.fina
Encoding: 65539 -1 3
GlifName: _.alef_kotah.fina
Width: 139
VWidth: 1304
GlyphClass: 2
Flags: HMW
LayerCount: 2
Fore
SplineSet
73 -6 m 1
 64 527 l 1
 139 557 l 1
 137 0 l 1
 73 -6 l 1
EndSplineSet
Colour: ffda6b
EndChar

StartChar: _.beh.isol
Encoding: 65540 -1 4
GlifName: _.beh.isol
Width: 925
VWidth: 1304
GlyphClass: 2
UnlinkRmOvrlpSave: 1
Flags: HMW
LayerCount: 2
Fore
SplineSet
64 221 m 0
 64 274 77 340 106 420 c 1
 149 401 l 1
 131 349 122 306 122 270 c 0
 122 140 234 101 418 101 c 0
 532 101 664 115 785 156 c 1
 785 158 785 161 785 163 c 0
 785 212 773 283 733 386 c 1
 809 450 l 1
 846 351 861 277 861 220 c 0
 861 121 815 77 760 54 c 1
 760 55 l 1
 685 19 546 1 424 -0 c 0
 230 0 64 32 64 221 c 0
EndSplineSet
Colour: ffda6b
EndChar

StartChar: _.beh.fina
Encoding: 65541 -1 5
GlifName: _.beh.fina
Width: 1021
VWidth: 1304
GlyphClass: 2
UnlinkRmOvrlpSave: 1
Flags: HMW
LayerCount: 2
Fore
SplineSet
64 221 m 0
 64 274 77 340 106 420 c 1
 149 401 l 1
 131 349 122 306 122 270 c 0
 122 140 234 101 418 101 c 0
 529 101 668 123 781 157 c 1
 769 206 765 262 765 300 c 1
 825 320 l 1
 830 202 852 139 914 113 c 0
 947 103 987 100 1021 100 c 1
 1021 -0 l 1
 946 0 863 13 819 75 c 1
 813 81 807 89 803 98 c 1
 794 87 784 75 770 63 c 0
 766 62 764 56 760 55 c 0
 668 24 521 1 424 -0 c 0
 230 0 64 32 64 221 c 0
EndSplineSet
Colour: ffda6b
EndChar

StartChar: _.beh.medi
Encoding: 65542 -1 6
GlifName: _.beh.medi
Width: 389
VWidth: 1304
GlyphClass: 2
UnlinkRmOvrlpSave: 1
Flags: HMW
LayerCount: 2
Fore
SplineSet
-50 50 m 0
 -50 75 -26 100 -1 100 c 0
 37 100 77 104 114 116 c 0
 151 129 155 145 155 190 c 0
 155 200 154 211 154 224 c 2
 154 320 l 1
 234 340 l 1
 234 204 l 2
 234 183 233 162 228 140 c 1
 267 107 340 100 389 100 c 1
 389 -0 l 1
 286 0 227 27 194 66 c 1
 162 27 102 0 0 -0 c 2
 -1 -0 l 1
 -26 1 -50 24 -50 50 c 0
EndSplineSet
Colour: ffda6b
EndChar

StartChar: _.beh.init
Encoding: 65543 -1 7
GlifName: _.beh.init
Width: 302
VWidth: 1197
GlyphClass: 1
UnlinkRmOvrlpSave: 1
Flags: HMW
LayerCount: 2
Fore
SplineSet
-50 49 m 0
 -50 76 -27 100 -1 100 c 2
 4 100 l 2
 58 100 124 111 158 139 c 1
 158 141 158 143 158 146 c 0
 158 196 146 263 110 356 c 1
 186 421 l 1
 223 321 238 245 238 187 c 0
 238 85 191 38 127 16 c 1
 127 17 l 1
 86 3 42 0 -1 -0 c 0
 -25 0 -50 24 -50 49 c 0
EndSplineSet
Colour: ffda6b
EndChar

StartChar: _.heh.isol
Encoding: 65544 -1 8
GlifName: _.heh.isol
Width: 748
VWidth: 1304
GlyphClass: 1
UnlinkRmOvrlpSave: 1
Flags: HMW
LayerCount: 2
Fore
SplineSet
64 272 m 1
 103 410 164 439 224 439 c 0
 369 439 503 300 684 300 c 1
 646 200 l 1
 633 200 l 1
 416 193 165 35 145 -141 c 1
 145 -139 l 1
 158 -235 250 -304 419 -304 c 0
 473 -304 536 -297 606 -281 c 1
 585 -379 l 1
 512 -392 449 -399 395 -399 c 0
 141 -399 85 -267 85 -161 c 0
 85 -137 88 -114 92 -94 c 0
 114 44 233 196 435 264 c 1
 351 301 267 340 203 340 c 0
 178 340 142 332 110 253 c 1
 64 272 l 1
EndSplineSet
Colour: ffda6b
EndChar

StartChar: _.heh.fina
Encoding: 65545 -1 9
GlifName: _.heh.fina
Width: 785
VWidth: 1304
GlyphClass: 1
UnlinkRmOvrlpSave: 1
Flags: HMW
LayerCount: 2
Fore
SplineSet
64 272 m 1
 103 410 164 439 224 439 c 0
 369 439 503 300 684 300 c 1
 646 200 l 1
 633 200 l 1
 612 199 591 198 571 194 c 1
 573 171 582 150 597 135 c 0
 633 109 696 100 746 100 c 2
 785 100 l 1
 785 -0 l 1
 750 -0 l 2
 589 0 520 75 515 182 c 1
 334 136 161 4 145 -141 c 1
 145 -139 l 1
 158 -235 250 -304 419 -304 c 0
 473 -304 536 -297 606 -281 c 1
 585 -379 l 1
 512 -392 449 -399 395 -399 c 0
 141 -399 85 -267 85 -161 c 0
 85 -137 88 -114 92 -94 c 0
 114 44 233 196 435 264 c 1
 351 301 267 340 203 340 c 0
 178 340 142 332 110 253 c 1
 64 272 l 1
EndSplineSet
Colour: ffda6b
EndChar

StartChar: _.heh.medi
Encoding: 65546 -1 10
GlifName: _.heh.medi
Width: 760
VWidth: 1304
GlyphClass: 1
UnlinkRmOvrlpSave: 1
Flags: HMW
LayerCount: 2
Fore
SplineSet
-50 48 m 0
 -50 74 -29 99 -3 100 c 1
 25 100 l 2
 223 100 283 198 425 257 c 1
 336 295 247 340 178 340 c 0
 153 340 116 332 84 253 c 1
 39 272 l 1
 78 410 139 439 199 439 c 0
 344 439 478 300 659 300 c 1
 620 199 l 1
 578 199 l 2
 567 199 556 195 546 194 c 1
 548 171 557 150 572 135 c 0
 608 109 671 100 721 100 c 2
 760 100 l 1
 760 -0 l 1
 724 -0 l 2
 563 0 495 75 489 182 c 1
 325 134 243 0 29 -0 c 2
 -3 -0 l 1
 -27 2 -50 23 -50 48 c 0
EndSplineSet
Colour: ffda6b
EndChar

StartChar: _.heh.init
Encoding: 65547 -1 11
GlifName: _.heh.init
Width: 723
VWidth: 1304
GlyphClass: 1
UnlinkRmOvrlpSave: 1
Flags: HMW
LayerCount: 2
Fore
SplineSet
-50 48 m 0
 -50 74 -29 99 -3 100 c 1
 25 100 l 2
 223 100 283 198 425 257 c 1
 336 295 247 340 178 340 c 0
 153 340 116 332 84 253 c 1
 39 272 l 1
 78 410 139 439 199 439 c 0
 344 439 478 300 659 300 c 1
 620 199 l 1
 578 199 l 1
 349 185 279 0 29 -0 c 2
 -3 -0 l 1
 -27 2 -50 23 -50 48 c 0
EndSplineSet
Colour: ffda6b
EndChar

StartChar: _.sin.isol
Encoding: 65548 -1 12
GlifName: _.sin.isol
Width: 1264
VWidth: 1304
GlyphClass: 1
UnlinkRmOvrlpSave: 1
Flags: HMW
LayerCount: 2
Fore
SplineSet
64 -44 m 0
 64 32 86 126 137 240 c 1
 186 210 l 1
 149 121 133 48 133 -10 c 0
 133 -143 218 -201 335 -201 c 0
 465 -200 548 -154 612 -100 c 1
 569 234 l 1
 647 299 l 1
 652 265 660 200 667 136 c 1
 710 111 746 101 780 101 c 0
 835 102 863 166 900 261 c 1
 966 229 l 1
 956 206 947 181 936 156 c 1
 967 106 1021 80 1115 79 c 1
 1116 92 1117 104 1117 118 c 0
 1117 168 1106 228 1070 312 c 1
 1148 377 l 1
 1185 295 1200 224 1200 165 c 0
 1200 70 1159 7 1099 -20 c 1
 1019 -20 936 -4 887 65 c 1
 858 28 821 1 765 1 c 0
 764 1 762 1 761 1 c 0
 734 1 706 8 679 18 c 1
 683 -12 684 -35 684 -47 c 0
 684 -213 478 -302 334 -302 c 0
 185 -301 64 -222 64 -44 c 0
EndSplineSet
Colour: ffda6b
EndChar

StartChar: _.sin.fina
Encoding: 65549 -1 13
GlifName: _.sin.fina
Width: 1413
VWidth: 1304
GlyphClass: 1
UnlinkRmOvrlpSave: 1
Flags: HMW
LayerCount: 2
Fore
SplineSet
64 -44 m 0
 64 32 86 126 137 240 c 1
 186 210 l 1
 149 121 133 48 133 -10 c 0
 133 -143 218 -201 335 -201 c 0
 465 -200 548 -154 612 -100 c 1
 569 234 l 1
 647 299 l 1
 652 265 660 200 667 136 c 1
 710 111 746 101 780 101 c 0
 835 102 863 166 900 261 c 1
 966 229 l 1
 955 202 943 171 931 143 c 1
 978 113 1017 101 1053 101 c 0
 1089 102 1114 128 1136 171 c 1
 1124 205 1114 243 1104 282 c 1
 1165 325 l 1
 1212 177 1233 100 1413 100 c 1
 1413 -0 l 1
 1292 0 1223 35 1179 92 c 1
 1149 40 1106 1 1039 1 c 0
 1038 1 1037 1 1036 1 c 0
 981 1 924 28 881 56 c 1
 852 24 816 1 765 1 c 0
 764 1 762 1 761 1 c 0
 734 1 706 8 679 18 c 1
 683 -12 684 -35 684 -47 c 0
 684 -213 478 -302 334 -302 c 0
 185 -301 64 -222 64 -44 c 0
EndSplineSet
Colour: ffda6b
EndChar

StartChar: _.sin.medi
Encoding: 65550 -1 14
GlifName: _.sin.medi
Width: 1012
VWidth: 1304
GlyphClass: 1
UnlinkRmOvrlpSave: 1
Flags: HMW
LayerCount: 2
Fore
SplineSet
-50 50 m 0
 -50 75 -27 99 -2 100 c 1
 137 100 212 175 269 320 c 1
 325 292 l 1
 311 233 290 182 263 139 c 1
 307 113 346 101 380 101 c 0
 435 102 463 166 500 261 c 1
 566 229 l 1
 555 202 543 171 531 143 c 1
 578 113 617 101 653 101 c 0
 689 102 713 128 735 171 c 1
 723 205 713 243 703 282 c 1
 765 325 l 1
 812 177 832 100 1012 100 c 1
 1012 -0 l 1
 891 0 823 35 779 92 c 1
 749 40 706 1 639 1 c 0
 638 1 637 1 636 1 c 0
 581 1 524 28 481 56 c 1
 452 24 416 1 365 1 c 0
 364 1 362 1 361 1 c 0
 302 1 239 33 195 64 c 1
 143 22 78 0 -1 -0 c 0
 -26 0 -50 24 -50 50 c 0
EndSplineSet
Colour: ffda6b
EndChar

StartChar: _.sin.init
Encoding: 65551 -1 15
GlifName: _.sin.init
Width: 864
VWidth: 1304
GlyphClass: 1
UnlinkRmOvrlpSave: 1
Flags: HMW
LayerCount: 2
Fore
SplineSet
-50 50 m 0
 -50 75 -27 99 -2 100 c 1
 137 100 212 175 269 320 c 1
 325 292 l 1
 311 233 290 182 263 139 c 1
 307 113 346 101 380 101 c 0
 435 102 463 166 500 261 c 1
 566 229 l 1
 555 202 543 172 531 144 c 1
 561 103 608 83 718 79 c 1
 719 89 720 99 720 111 c 0
 720 160 708 228 671 320 c 1
 748 385 l 1
 785 285 800 209 800 151 c 0
 800 48 753 1 689 -20 c 1
 577 -20 529 9 492 71 c 1
 462 30 423 1 365 1 c 0
 364 1 362 1 361 1 c 0
 302 1 239 33 195 64 c 1
 143 22 78 0 -1 -0 c 0
 -26 0 -50 24 -50 50 c 0
EndSplineSet
Colour: ffda6b
EndChar

StartChar: _.sad.isol
Encoding: 65552 -1 16
GlifName: _.sad.isol
Width: 1332
VWidth: 1304
GlyphClass: 1
UnlinkRmOvrlpSave: 1
Flags: HMW
LayerCount: 2
Fore
SplineSet
650 34 m 1
 654 0 660 -34 660 -68 c 0
 660 -186 491 -301 309 -301 c 0
 119 -301 64 -199 64 -71 c 0
 64 5 84 90 106 168 c 1
 154 157 l 1
 138 92 126 31 126 -21 c 0
 126 -128 172 -200 316 -200 c 0
 427 -200 561 -147 600 -100 c 1
 546 205 l 1
 618 253 l 1
 623 219 627 185 632 151 c 1
 636 151 l 1
 650 135 673 120 706 111 c 1
 790 208 934 402 1077 402 c 0
 1174 402 1259 312 1268 214 c 0
 1268 212 1268 209 1268 207 c 0
 1268 83 1199 0 1065 -0 c 2
 770 -0 l 1
 724 4 683 16 650 34 c 1
768 100 m 1
 1065 100 l 2
 1141 100 1187 133 1214 172 c 1
 1205 235 1147 299 1061 300 c 0
 982 300 880 243 768 100 c 1
EndSplineSet
Colour: ffda6b
EndChar

StartChar: _.sad.fina
Encoding: 65553 -1 17
GlifName: _.sad.fina
Width: 1420
VWidth: 1304
GlyphClass: 1
UnlinkRmOvrlpSave: 1
Flags: HMW
LayerCount: 2
Fore
SplineSet
650 34 m 1
 654 0 660 -34 660 -68 c 0
 660 -186 491 -301 309 -301 c 0
 119 -301 64 -199 64 -71 c 0
 64 5 84 90 106 168 c 1
 154 157 l 1
 138 92 126 31 126 -21 c 0
 126 -128 172 -200 316 -200 c 0
 427 -200 561 -147 600 -100 c 1
 546 205 l 1
 618 253 l 1
 623 219 627 185 632 151 c 1
 636 151 l 1
 650 135 673 120 706 111 c 1
 790 208 934 402 1077 402 c 0
 1176 402 1268 308 1268 201 c 0
 1268 180 1266 161 1262 144 c 1
 1289 118 1340 100 1420 100 c 1
 1420 -0 l 1
 1339 0 1268 24 1226 68 c 1
 1193 25 1139 0 1065 -0 c 2
 770 -0 l 1
 724 4 683 16 650 34 c 1
768 100 m 1
 1065 100 l 2
 1141 100 1187 133 1214 172 c 1
 1205 235 1147 299 1061 300 c 0
 982 300 880 243 768 100 c 1
EndSplineSet
Colour: ffda6b
EndChar

StartChar: _.sad.medi
Encoding: 65554 -1 18
GlifName: _.sad.medi
Width: 1036
VWidth: 1304
GlyphClass: 1
UnlinkRmOvrlpSave: 1
Flags: HMW
LayerCount: 2
Fore
SplineSet
692 402 m 0
 791 402 883 308 883 201 c 0
 883 180 881 161 877 144 c 1
 904 118 956 100 1036 100 c 1
 1036 -0 l 1
 955 0 883 24 841 68 c 1
 808 25 754 0 680 -0 c 2
 325 -0 l 2
 281 0 231 18 195 71 c 1
 154 25 81 0 0 -0 c 1
 -25 1 -50 24 -50 50 c 0
 -50 75 -25 99 -2 100 c 1
 83 100 136 121 162 149 c 1
 132 268 l 1
 195 285 l 1
 227 166 l 2
 238 123 275 108 314 102 c 1
 396 197 544 402 692 402 c 0
370 100 m 1
 382 100 l 1
 370 100 l 1
382 100 m 1
 680 100 l 2
 756 100 802 133 829 172 c 1
 820 235 762 299 676 300 c 0
 597 300 494 244 382 100 c 1
EndSplineSet
Colour: ffda6b
EndChar

StartChar: _.sad.init
Encoding: 65555 -1 19
GlifName: _.sad.init
Width: 947
VWidth: 1304
GlyphClass: 1
UnlinkRmOvrlpSave: 1
Flags: HMW
LayerCount: 2
Fore
SplineSet
-50 50 m 0
 -50 75 -25 99 -2 100 c 1
 83 100 136 121 162 149 c 1
 132 268 l 1
 195 285 l 1
 227 166 l 2
 238 123 275 108 314 102 c 1
 396 197 544 402 692 402 c 0
 789 402 874 312 883 214 c 0
 883 212 883 209 883 207 c 0
 883 83 814 0 680 -0 c 2
 325 -0 l 2
 281 0 231 18 195 71 c 1
 154 25 81 0 0 -0 c 1
 -25 1 -50 24 -50 50 c 0
370 100 m 1
 382 100 l 1
 370 100 l 1
382 100 m 1
 680 100 l 2
 756 100 802 133 829 172 c 1
 820 235 762 299 676 300 c 0
 597 300 494 244 382 100 c 1
EndSplineSet
Colour: ffda6b
EndChar

StartChar: _.ta.isol
Encoding: 65556 -1 20
GlifName: _.ta.isol
Width: 884
VWidth: 1304
GlyphClass: 1
UnlinkRmOvrlpSave: 1
Flags: HMW
LayerCount: 2
Fore
SplineSet
64 87 m 0
 64 95 69 100 82 100 c 2
 244 100 l 1
 226 780 l 1
 306 800 l 1
 306 168 l 1
 391 269 511 402 629 402 c 0
 726 402 811 312 820 214 c 0
 820 212 820 209 820 207 c 0
 820 83 751 0 617 -0 c 2
 148 -0 l 2
 130 0 64 60 64 87 c 0
306 100 m 1
 319 100 l 1
 306 100 l 1
319 100 m 1
 617 100 l 2
 693 100 739 133 766 172 c 1
 757 235 699 299 613 300 c 0
 534 300 431 244 319 100 c 1
EndSplineSet
Colour: ffda6b
EndChar

StartChar: _.ta.fina
Encoding: 65557 -1 21
GlifName: _.ta.fina
Width: 972
VWidth: 1304
GlyphClass: 1
UnlinkRmOvrlpSave: 1
Flags: HMW
LayerCount: 2
Fore
SplineSet
629 402 m 0
 728 402 820 308 820 201 c 0
 820 180 818 161 814 144 c 1
 841 118 892 100 972 100 c 1
 972 -0 l 1
 891 0 820 24 778 68 c 1
 745 25 691 0 617 -0 c 2
 148 -0 l 2
 130 0 64 60 64 87 c 0
 64 95 69 100 82 100 c 2
 244 100 l 1
 226 780 l 1
 306 800 l 1
 306 168 l 1
 391 269 511 402 629 402 c 0
306 100 m 1
 319 100 l 1
 306 100 l 1
319 100 m 1
 617 100 l 2
 693 100 739 133 766 172 c 1
 757 235 699 299 613 300 c 0
 534 300 431 244 319 100 c 1
EndSplineSet
Colour: ffda6b
EndChar

StartChar: _.ta.medi
Encoding: 65558 -1 22
GlifName: _.ta.medi
Width: 795
VWidth: 1304
GlyphClass: 1
UnlinkRmOvrlpSave: 1
Flags: HMW
LayerCount: 2
Fore
SplineSet
451 402 m 0
 550 402 642 308 642 201 c 0
 642 180 640 161 636 144 c 1
 663 118 715 100 795 100 c 1
 795 -0 l 1
 714 0 642 24 600 68 c 1
 567 25 513 0 439 -0 c 2
 0 -0 l 2
 -25 0 -50 24 -50 50 c 0
 -49 76 -25 100 0 100 c 2
 66 100 l 1
 48 780 l 1
 129 800 l 1
 129 168 l 1
 214 269 333 402 451 402 c 0
129 100 m 1
 141 100 l 1
 129 100 l 1
141 100 m 1
 439 100 l 2
 515 100 561 133 588 172 c 1
 579 235 521 299 435 300 c 0
 356 300 253 244 141 100 c 1
EndSplineSet
Colour: ffda6b
EndChar

StartChar: _.ta.init
Encoding: 65559 -1 23
GlifName: _.ta.init
Width: 706
VWidth: 1304
GlyphClass: 1
UnlinkRmOvrlpSave: 1
Flags: HMW
LayerCount: 2
Fore
SplineSet
-50 50 m 0
 -49 76 -25 100 0 100 c 2
 66 100 l 1
 48 780 l 1
 129 800 l 1
 129 168 l 1
 214 269 333 402 451 402 c 0
 548 402 633 312 642 214 c 0
 642 212 642 209 642 207 c 0
 642 83 573 0 439 -0 c 2
 0 -0 l 2
 -25 0 -50 24 -50 50 c 0
129 100 m 1
 141 100 l 1
 129 100 l 1
141 100 m 1
 439 100 l 2
 515 100 561 133 588 172 c 1
 579 235 521 299 435 300 c 0
 356 300 253 244 141 100 c 1
EndSplineSet
Colour: ffda6b
EndChar

StartChar: _.ein.isol
Encoding: 65560 -1 24
GlifName: _.ein.isol
Width: 689
VWidth: 1304
GlyphClass: 1
UnlinkRmOvrlpSave: 1
Flags: HMW
LayerCount: 2
Fore
SplineSet
64 -160 m 0
 64 -141 66 -121 69 -100 c 0
 89 22 168 131 284 205 c 1
 234 261 191 331 191 407 c 0
 191 425 193 442 198 460 c 0
 221 535 307 614 405 614 c 0
 462 614 523 582 579 548 c 1
 558 481 l 1
 507 504 460 513 419 513 c 0
 326 513 265 469 262 454 c 0
 261 450 261 447 261 443 c 0
 261 381 342 284 417 277 c 1
 467 279 508 287 536 292 c 1
 536 292 578 302 625 319 c 1
 596 225 l 1
 526 209 447 186 385 156 c 1
 385 155 l 1
 263 98 152 1 127 -100 c 0
 125 -112 124 -123 124 -134 c 0
 124 -267 264 -312 431 -312 c 0
 490 -312 551 -306 612 -297 c 1
 582 -374 l 1
 507 -396 435 -407 369 -407 c 0
 193 -407 64 -329 64 -160 c 0
EndSplineSet
Colour: ffda6b
EndChar

StartChar: _.ein.fina
Encoding: 65561 -1 25
GlifName: _.ein.fina
Width: 645
VWidth: 1304
GlyphClass: 1
UnlinkRmOvrlpSave: 1
Flags: HMW
LayerCount: 2
Fore
SplineSet
64 314 m 1
 64 314 88 415 90 426 c 1
 196 459 278 469 339 469 c 0
 421 469 467 451 480 447 c 0
 546 422 549 368 549 351 c 0
 549 268 454 211 406 170 c 1
 449 116 493 100 534 100 c 2
 645 100 l 1
 645 -0 l 1
 535 -0 l 2
 464 0 403 55 340 120 c 1
 244 62 165 -18 145 -100 c 0
 143 -112 142 -123 142 -134 c 0
 142 -267 282 -312 449 -312 c 0
 508 -312 569 -306 630 -297 c 1
 601 -374 l 1
 526 -396 453 -407 387 -407 c 0
 211 -407 82 -329 82 -160 c 0
 82 -141 84 -121 87 -100 c 0
 105 12 174 113 276 187 c 1
 212 252 144 310 64 314 c 1
175 351 m 1
 244 319 325 238 346 221 c 1
 431 272 479 321 479 332 c 0
 479 371 350 376 332 377 c 0
 222 375 175 351 175 351 c 1
EndSplineSet
Colour: ffda6b
EndChar

StartChar: _.ein.medi
Encoding: 65562 -1 26
GlifName: _.ein.medi
Width: 628
VWidth: 1304
GlyphClass: 1
UnlinkRmOvrlpSave: 1
Flags: HMW
LayerCount: 2
Fore
SplineSet
-50 50 m 0
 -50 76 -26 100 0 100 c 2
 18 100 l 2
 137 100 189 118 236 132 c 1
 120 254 41 277 41 277 c 1
 41 277 65 378 67 389 c 1
 173 422 250 432 305 432 c 0
 379 432 413 414 426 410 c 0
 493 385 497 341 497 326 c 0
 497 245 438 163 391 124 c 1
 478 99 539 100 628 100 c 1
 628 -0 l 1
 470 0 377 20 308 68 c 1
 180 0 50 0 20 -0 c 2
 0 -0 l 2
 -26 0 -50 24 -50 50 c 0
142 314 m 1
 211 281 302 185 322 168 c 1
 406 218 426 281 426 294 c 0
 426 333 306 338 290 338 c 0
 180 337 142 314 142 314 c 1
EndSplineSet
Colour: ffda6b
EndChar

StartChar: _.ein.init
Encoding: 65563 -1 27
GlifName: _.ein.init
Width: 574
VWidth: 1304
GlyphClass: 1
UnlinkRmOvrlpSave: 1
Flags: HMW
LayerCount: 2
Fore
SplineSet
-50 50 m 0
 -49 76 -25 100 0 100 c 1
 0 -0 l 1
 -25 0 -50 24 -50 50 c 0
168 302 m 0
 168 377 230 402 321 402 c 0
 364 402 412 394 457 380 c 1
 471 433 l 1
 424 483 365 505 308 505 c 0
 221 505 138 454 108 377 c 0
 94 340 86 296 86 252 c 0
 86 201 97 148 125 104 c 1
 100 100 74 100 51 100 c 2
 0 100 l 1
 0 -0 l 1
 72 -0 l 2
 199 0 373 74 487 100 c 1
 510 191 l 1
 452 180 357 147 252 125 c 1
 204 164 168 241 168 302 c 0
EndSplineSet
Colour: ffda6b
EndChar

StartChar: _.feh.isol
Encoding: 65564 -1 28
GlifName: _.feh.isol
Width: 927
VWidth: 1304
GlyphClass: 1
UnlinkRmOvrlpSave: 1
Flags: HMW
LayerCount: 2
Fore
SplineSet
702 208 m 0
 620 208 528 229 527 340 c 0
 527 424 581 596 689 596 c 0
 849 596 858 345 863 181 c 1
 863 170 l 1
 861 139 852 94 832 74 c 0
 797 39 624 -5 451 -5 c 0
 258 -5 64 49 64 231 c 0
 64 278 77 334 107 400 c 1
 155 379 l 1
 136 338 127 302 127 271 c 0
 127 140 282 96 452 96 c 0
 573 96 701 118 787 146 c 1
 787 146 791 148 796 150 c 1
 796 220 l 1
 775 218 751 208 702 208 c 0
664 490 m 0
 616 490 587 434 587 383 c 0
 587 345 623 310 698 310 c 2
 698 310 699 310 701 310 c 0
 712 310 745 311 785 320 c 1
 774 398 745 490 664 490 c 0
EndSplineSet
Colour: ffda6b
EndChar

StartChar: _.feh.fina
Encoding: 65565 -1 29
GlifName: _.feh.fina
Width: 1008
VWidth: 1304
GlyphClass: 1
UnlinkRmOvrlpSave: 1
Flags: HMW
LayerCount: 2
Fore
SplineSet
730 451 m 0
 827 451 861 321 864 262 c 1
 860 122 726 15 551 -0 c 0
 518 -3 484 -5 450 -5 c 0
 257 -5 64 50 64 231 c 0
 64 278 77 334 107 400 c 1
 155 379 l 1
 136 337 127 301 127 270 c 0
 127 140 280 96 449 96 c 0
 469 96 490 97 511 98 c 1
 656 98 779 150 815 234 c 1
 806 277 777 343 722 349 c 1
 667 343 630 291 620 244 c 1
 637 170 778 100 938 100 c 2
 1008 100 l 1
 1008 -0 l 1
 938 -0 l 2
 721 0 598 130 578 210 c 0
 575 218 574 228 574 240 c 0
 574 314 629 451 730 451 c 0
EndSplineSet
Colour: ffda6b
EndChar

StartChar: _.feh.medi
Encoding: 65566 -1 30
GlifName: _.feh.medi
Width: 500
VWidth: 1304
GlyphClass: 1
UnlinkRmOvrlpSave: 1
Flags: HMW
LayerCount: 2
Fore
SplineSet
221 451 m 0
 318 451 354 321 355 262 c 0
 353 109 196 0 0 -0 c 0
 -26 0 -50 24 -50 50 c 0
 -50 76 -26 100 -1 100 c 0
 145 100 270 149 307 234 c 1
 297 277 270 343 215 349 c 1
 160 343 121 291 112 244 c 1
 129 170 270 100 430 100 c 2
 500 100 l 1
 500 -0 l 1
 430 -0 l 2
 213 0 89 130 71 210 c 0
 68 218 67 228 67 240 c 0
 67 314 121 451 221 451 c 0
EndSplineSet
Colour: ffda6b
EndChar

StartChar: _.feh.init
Encoding: 65567 -1 31
GlifName: _.feh.init
Width: 445
VWidth: 1304
GlyphClass: 1
UnlinkRmOvrlpSave: 1
Flags: HMW
LayerCount: 2
Fore
SplineSet
380 294 m 0
 380 285 379 278 379 268 c 0
 379 237 381 198 381 170 c 2
 381 150 l 2
 381 50 280 0 180 -0 c 2
 -1 -0 l 1
 -26 1 -50 24 -50 50 c 0
 -50 75 -26 100 -1 100 c 2
 180 100 l 2
 232 100 283 116 314 150 c 1
 314 220 l 1
 293 218 269 208 220 208 c 0
 138 208 46 229 45 340 c 0
 45 424 99 596 207 596 c 0
 343 596 380 402 380 294 c 0
182 490 m 0
 134 490 105 434 105 383 c 0
 105 345 141 310 216 310 c 2
 216 310 218 310 220 310 c 0
 231 310 263 311 303 320 c 1
 292 398 263 490 182 490 c 0
EndSplineSet
Colour: ffda6b
EndChar

StartChar: _.qaf.isol
Encoding: 65568 -1 32
GlifName: _.qaf.isol
Width: 725
VWidth: 1304
GlyphClass: 1
UnlinkRmOvrlpSave: 1
Flags: HMW
LayerCount: 2
Fore
SplineSet
64 -72 m 0
 64 4 83 90 106 168 c 1
 154 157 l 1
 138 92 127 31 127 -22 c 0
 127 -129 173 -200 316 -200 c 0
 427 -200 552 -146 593 -100 c 1
 593 31 l 1
 572 29 548 18 500 18 c 0
 497 18 495 18 492 18 c 0
 414 18 325 41 324 149 c 0
 324 234 379 405 487 405 c 0
 623 405 660 213 660 105 c 0
 660 103 660 102 660 100 c 2
 660 -64 l 2
 660 -68 661 -72 661 -76 c 0
 661 -191 488 -301 308 -301 c 0
 119 -301 64 -199 64 -72 c 0
463 300 m 0
 414 300 384 245 384 193 c 0
 384 154 420 119 495 119 c 1
 495 119 534 119 583 129 c 1
 572 206 542 300 463 300 c 0
EndSplineSet
Colour: ffda6b
EndChar

StartChar: _.qaf.fina
Encoding: 65569 -1 33
GlifName: _.qaf.fina
Width: 832
VWidth: 1304
GlyphClass: 1
UnlinkRmOvrlpSave: 1
Flags: HMW
LayerCount: 2
Fore
SplineSet
64 -72 m 0
 64 4 83 90 106 168 c 1
 154 157 l 1
 138 92 127 31 127 -22 c 0
 127 -129 173 -200 316 -200 c 0
 427 -200 552 -146 593 -100 c 1
 593 -0 l 1
 535 -0 l 1
 523 -1 509 -3 492 -3 c 0
 414 -2 325 21 324 129 c 0
 324 213 379 385 487 385 c 0
 616 385 656 211 660 100 c 1
 832 100 l 1
 832 -0 l 1
 660 -0 l 1
 660 -64 l 2
 660 -68 661 -72 661 -76 c 0
 661 -191 488 -301 308 -301 c 0
 119 -301 64 -199 64 -72 c 0
461 279 m 0
 413 279 384 224 384 174 c 0
 384 135 420 100 495 100 c 0
 525 100 554 100 584 100 c 1
 575 170 550 279 461 279 c 0
EndSplineSet
Colour: ffda6b
EndChar

StartChar: _.kaf.isol.fa
Encoding: 65570 -1 34
GlifName: _.kaf.isol.fa
Width: 1047
VWidth: 1304
GlyphClass: 1
UnlinkRmOvrlpSave: 1
Flags: HMW
LayerCount: 2
Fore
SplineSet
863 181 m 0
 863 176 863 172 863 167 c 0
 861 137 850 94 832 74 c 0
 797 39 624 -5 451 -5 c 0
 258 -5 64 49 64 231 c 0
 64 278 77 334 107 400 c 1
 155 379 l 1
 136 338 127 302 127 271 c 0
 127 140 282 96 452 96 c 0
 573 96 701 118 787 146 c 1
 792 146 l 1
 796 152 l 1
 794 295 616 450 520 550 c 1
 563 650 l 1
 983 800 l 1
 967 714 l 1
 623 587 l 1
 737 473 857 347 863 181 c 0
EndSplineSet
Colour: ffda6b
EndChar

StartChar: _.kaf.isol.ar
Encoding: 65571 -1 35
GlifName: _.kaf.isol.ar
Width: 927
VWidth: 1304
GlyphClass: 1
UnlinkRmOvrlpSave: 1
Flags: HMW
LayerCount: 2
Fore
SplineSet
64 231 m 0
 64 278 77 334 107 400 c 1
 155 379 l 1
 136 338 127 302 127 271 c 0
 127 140 282 96 452 96 c 0
 573 96 701 118 787 146 c 1
 787 146 791 147 797 151 c 1
 773 700 l 1
 853 720 l 1
 863 181 l 2
 863 151 854 96 832 74 c 0
 797 39 624 -5 451 -5 c 0
 258 -5 64 49 64 231 c 0
EndSplineSet
Colour: ffda6b
EndChar

StartChar: _.kaf.fina.fa
Encoding: 65572 -1 36
GlifName: _.kaf.fina.fa
Width: 1095
VWidth: 1304
GlyphClass: 1
UnlinkRmOvrlpSave: 1
Flags: HMW
LayerCount: 2
Fore
SplineSet
787 146 m 0
 787 145 795 150 796 152 c 0
 794 295 616 450 520 550 c 1
 563 650 l 1
 983 800 l 1
 967 714 l 1
 623 587 l 1
 685 525 746 462 792 389 c 1
 824 347 881 257 922 197 c 1
 952 156 l 2
 989 108 1022 100 1095 100 c 1
 1095 -0 l 1
 966 0 908 42 858 134 c 1
 853 111 844 88 832 74 c 0
 797 39 624 -5 451 -5 c 0
 258 -5 64 49 64 231 c 0
 64 278 77 334 107 400 c 1
 155 379 l 1
 136 338 127 302 127 271 c 0
 127 140 282 96 452 96 c 0
 573 96 701 118 787 146 c 0
EndSplineSet
Colour: ffda6b
EndChar

StartChar: _.kaf.fina.ar
Encoding: 65573 -1 37
GlifName: _.kaf.fina.ar
Width: 1076
VWidth: 1304
GlyphClass: 1
UnlinkRmOvrlpSave: 1
Flags: HMW
LayerCount: 2
Fore
SplineSet
64 231 m 0
 64 278 77 334 107 400 c 1
 155 379 l 1
 136 338 127 302 127 271 c 0
 127 140 282 96 452 96 c 0
 573 96 701 118 787 146 c 1
 787 146 792 148 801 152 c 1
 775 700 l 1
 855 720 l 1
 864 252 l 1
 876 235 889 217 903 197 c 1
 934 156 l 2
 970 108 1005 100 1076 100 c 1
 1076 -0 l 1
 959 0 900 36 852 112 c 1
 847 96 841 83 832 74 c 0
 797 39 624 -5 451 -5 c 0
 258 -5 64 49 64 231 c 0
EndSplineSet
Colour: ffda6b
EndChar

StartChar: _.kaf.medi
Encoding: 65574 -1 38
GlifName: _.kaf.medi
Width: 548
VWidth: 1304
GlyphClass: 1
UnlinkRmOvrlpSave: 1
Flags: HMW
LayerCount: 2
Fore
SplineSet
-50 50 m 0
 -50 76 -25 100 0 100 c 2
 90 100 l 2
 148 100 230 110 255 152 c 1
 253 295 76 450 -20 550 c 1
 23 650 l 1
 442 800 l 1
 426 714 l 1
 82 587 l 1
 146 522 212 455 259 377 c 1
 291 335 334 257 375 197 c 1
 405 156 l 2
 442 108 477 100 548 100 c 1
 548 -0 l 1
 425 0 366 39 317 123 c 1
 292 16 176 0 92 -0 c 2
 0 -0 l 2
 -26 0 -50 24 -50 50 c 0
EndSplineSet
Colour: ffda6b
EndChar

StartChar: _.kaf.init
Encoding: 65575 -1 39
GlifName: _.kaf.init
Width: 506
VWidth: 1304
GlyphClass: 1
UnlinkRmOvrlpSave: 1
Flags: HMW
LayerCount: 2
Fore
SplineSet
-50 50 m 0
 -50 76 -25 100 0 100 c 2
 90 100 l 2
 148 100 230 110 255 152 c 1
 253 295 76 450 -20 550 c 1
 23 650 l 1
 442 800 l 1
 426 714 l 1
 82 587 l 1
 199 469 322 340 322 168 c 0
 322 20 187 0 92 -0 c 2
 0 -0 l 2
 -26 0 -50 24 -50 50 c 0
EndSplineSet
Colour: ffda6b
EndChar

StartChar: _.ghaf.isol
Encoding: 65577 -1 41
GlifName: _.ghaf.isol
Width: 1047
VWidth: 0
GlyphClass: 1
UnlinkRmOvrlpSave: 1
Flags: HMW
LayerCount: 2
Fore
SplineSet
863 181 m 0
 863 176 863 172 863 167 c 0
 861 137 850 94 832 74 c 0
 797 39 624 -5 451 -5 c 0
 258 -5 64 49 64 231 c 0
 64 278 77 334 107 400 c 1
 155 379 l 1
 136 338 127 302 127 271 c 0
 127 140 282 96 452 96 c 0
 573 96 701 118 787 146 c 1
 787 146 790 148 794 149 c 1
 794 152 l 1
 796 269 610 401 521 466 c 1
 563 565 l 1
 983 715 l 1
 938 615 l 1
 631 505 l 1
 753 408 857 323 863 181 c 0
581 649 m 1
 597 710 l 1
 906 821 l 1
 893 766 l 1
 581 649 l 1
EndSplineSet
Colour: ffda6b
EndChar

StartChar: _.ghaf.fina
Encoding: 65578 -1 42
GlifName: _.ghaf.fina
Width: 1082
VWidth: 0
GlyphClass: 1
Flags: HMW
LayerCount: 2
Fore
SplineSet
64 231 m 0
 64 278 77 334 107 400 c 1
 155 379 l 1
 136 338 127 302 127 271 c 0
 127 140 282 96 452 96 c 0
 573 96 701 118 787 146 c 1
 787 146 790 148 794 149 c 1
 794 152 l 1
 796 269 610 401 521 466 c 1
 563 565 l 1
 983 715 l 1
 938 615 l 1
 631 505 l 1
 699 451 762 400 805 342 c 0
 836 301 870 254 909 197 c 1
 940 156 l 2
 976 108 1011 100 1082 100 c 1
 1082 -0 l 1
 961 0 902 37 854 118 c 1
 849 101 842 84 832 74 c 0
 797 39 624 -5 451 -5 c 0
 258 -5 64 49 64 231 c 0
581 649 m 1
 597 710 l 1
 906 821 l 1
 893 766 l 1
 581 649 l 1
EndSplineSet
Colour: ffda6b
EndChar

StartChar: _.lam.isol
Encoding: 65580 -1 44
GlifName: _.lam.isol
Width: 724
VWidth: 1304
GlyphClass: 1
UnlinkRmOvrlpSave: 1
Flags: HMW
LayerCount: 2
Fore
SplineSet
64 30 m 0
 64 106 84 191 106 269 c 1
 154 257 l 1
 138 192 126 131 126 79 c 0
 126 -28 172 -100 316 -100 c 0
 426 -100 559 -47 600 -0 c 1
 550 780 l 1
 630 800 l 1
 660 40 l 2
 660 37 660 36 660 33 c 0
 660 -86 491 -200 309 -200 c 0
 119 -200 64 -98 64 30 c 0
EndSplineSet
Colour: ffda6b
EndChar

StartChar: _.lam.fina
Encoding: 65581 -1 45
GlifName: _.lam.fina
Width: 824
VWidth: 1304
GlyphClass: 1
UnlinkRmOvrlpSave: 1
Flags: HMW
LayerCount: 2
Fore
SplineSet
64 -70 m 0
 64 6 84 90 106 168 c 1
 154 157 l 1
 138 92 126 31 126 -21 c 0
 126 -128 172 -200 316 -200 c 0
 426 -200 558 -147 599 -101 c 1
 580 780 l 1
 660 800 l 1
 660 150 l 1
 686 120 738 100 824 100 c 1
 824 -0 l 1
 761 0 703 13 660 39 c 1
 660 -63 l 2
 660 -65 660 -66 660 -68 c 0
 660 -186 491 -301 309 -301 c 0
 119 -301 64 -198 64 -70 c 0
EndSplineSet
Colour: ffda6b
EndChar

StartChar: _.lam.medi
Encoding: 65582 -1 46
GlifName: _.lam.medi
Width: 396
VWidth: 1304
GlyphClass: 1
UnlinkRmOvrlpSave: 1
Flags: HMW
LayerCount: 2
Fore
SplineSet
-50 49 m 0
 -50 76 -27 100 -1 100 c 0
 85 100 139 120 165 150 c 1
 151 780 l 1
 231 800 l 1
 231 150 l 1
 257 120 310 100 396 100 c 1
 396 -0 l 1
 315 0 239 22 197 66 c 1
 155 22 80 0 -1 -0 c 0
 -25 0 -50 24 -50 49 c 0
EndSplineSet
Colour: ffda6b
EndChar

StartChar: _.lam.init
Encoding: 65583 -1 47
GlifName: _.lam.init
Width: 294
VWidth: 1304
GlyphClass: 1
UnlinkRmOvrlpSave: 1
Flags: HMW
LayerCount: 2
Fore
SplineSet
-50 49 m 0
 -50 75 -28 99 -2 100 c 1
 84 100 143 122 169 152 c 1
 130 780 l 1
 210 800 l 1
 230 150 l 1
 230 50 120 0 -1 -0 c 1
 -25 1 -50 24 -50 49 c 0
EndSplineSet
Colour: ffda6b
EndChar

StartChar: _.mim.isol
Encoding: 65584 -1 48
GlifName: _.mim.isol
Width: 652
VWidth: 1304
GlyphClass: 1
UnlinkRmOvrlpSave: 1
Flags: HMW
LayerCount: 2
Fore
SplineSet
64 27 m 1
 63 156 135 209 231 225 c 1
 208 242 l 1
 239 291 260 359 307 434 c 0
 337 481 371 490 405 490 c 0
 505 490 588 335 588 201 c 0
 588 187 587 173 585 160 c 1
 585 128 550 100 518 100 c 1
 446 113 361 124 287 124 c 0
 224 124 169 116 139 95 c 1
 158 -393 l 1
 96 -399 l 1
 64 27 l 1
270 230 m 1
 281 231 292 231 304 231 c 0
 374 231 449 220 518 207 c 1
 495 286 413 378 363 378 c 0
 351 378 342 373 335 362 c 0
 307 316 288 271 270 230 c 1
EndSplineSet
Colour: ffda6b
EndChar

StartChar: _.mim.fina
Encoding: 65585 -1 49
GlifName: _.mim.fina
Width: 715
VWidth: 1304
GlyphClass: 1
UnlinkRmOvrlpSave: 1
Flags: HMW
LayerCount: 2
Fore
SplineSet
64 144 m 1
 62 334 212 386 389 397 c 1
 382 425 l 1
 454 473 l 1
 515 248 l 2
 548 124 581 100 673 100 c 2
 712 100 l 1
 715 2 l 1
 675 2 l 2
 621 2 547 14 501 66 c 1
 454 15 406 -8 364 -8 c 0
 274 -8 206 95 204 253 c 1
 179 242 156 229 138 212 c 1
 156 -376 l 1
 96 -382 l 1
 64 144 l 1
284 282 m 1
 286 150 332 96 386 96 c 0
 411 96 438 108 464 129 c 1
 416 300 l 1
 378 299 331 293 284 282 c 1
EndSplineSet
Colour: ffda6b
EndChar

StartChar: _.mim.medi
Encoding: 65586 -1 50
GlifName: _.mim.medi
Width: 713
VWidth: 1304
GlyphClass: 1
UnlinkRmOvrlpSave: 1
Flags: HMW
LayerCount: 2
Fore
SplineSet
713 -0 m 1
 625 0 572 21 531 52 c 1
 498 -15 451 -41 397 -41 c 0
 325 -41 242 5 169 59 c 1
 127 26 73 0 0 -0 c 1
 -25 1 -50 24 -50 50 c 0
 -50 75 -27 99 -2 100 c 1
 229 100 272 377 353 377 c 0
 364 377 376 371 389 359 c 1
 435 306 498 144 628 108 c 0
 643 104 660 102 680 101 c 0
 690 100 702 100 713 100 c 1
 713 -0 l 1
241 141 m 1
 287 106 352 55 408 55 c 0
 434 55 458 65 478 93 c 1
 440 129 398 176 362 229 c 0
 350 249 339 258 329 258 c 0
 303 258 282 201 241 141 c 1
EndSplineSet
Colour: ffda6b
EndChar

StartChar: _.mim.init
Encoding: 65587 -1 51
GlifName: _.mim.init
Width: 643
VWidth: 1304
GlyphClass: 1
UnlinkRmOvrlpSave: 1
Flags: HMW
LayerCount: 2
Fore
SplineSet
-50 50 m 0
 -50 76 -26 100 -1 100 c 0
 264 100 255 400 373 400 c 0
 376 400 380 401 383 401 c 0
 434 401 502 350 542 289 c 1
 567 256 579 217 579 177 c 0
 579 81 514 -17 423 -17 c 0
 402 -17 380 -11 357 -0 c 2
 200 76 l 1
 153 33 89 0 -1 -0 c 0
 -26 0 -50 24 -50 50 c 0
268 160 m 1
 396 100 l 2
 411 93 424 89 436 89 c 0
 471 89 498 117 516 164 c 1
 482 224 419 293 365 293 c 0
 334 293 312 229 268 160 c 1
EndSplineSet
Colour: ffda6b
EndChar

StartChar: _.nun.isol
Encoding: 65588 -1 52
GlifName: _.nun.isol
Width: 748
VWidth: 1305
GlyphClass: 1
UnlinkRmOvrlpSave: 1
Flags: HMW
LayerCount: 2
Fore
SplineSet
64 -44 m 0
 64 32 85 126 136 240 c 1
 186 210 l 1
 151 111 135 35 135 -24 c 0
 135 -159 218 -201 336 -201 c 0
 466 -200 549 -154 613 -100 c 1
 570 234 l 1
 646 299 l 1
 658 221 684 1 684 -47 c 0
 684 -213 479 -302 335 -302 c 0
 185 -301 64 -223 64 -44 c 0
EndSplineSet
Colour: ffda6b
EndChar

StartChar: _.nun.fina
Encoding: 65589 -1 53
GlifName: _.nun.fina
Width: 826
VWidth: 1413
GlyphClass: 1
UnlinkRmOvrlpSave: 1
Flags: HMW
LayerCount: 2
Fore
SplineSet
64 -44 m 0
 64 32 85 126 136 240 c 1
 186 210 l 1
 151 111 135 35 135 -24 c 0
 135 -159 218 -201 336 -201 c 0
 466 -200 549 -154 613 -100 c 1
 570 234 l 1
 646 299 l 1
 651 266 659 206 666 146 c 1
 693 118 742 100 826 100 c 1
 826 -0 l 1
 763 0 714 11 678 29 c 1
 682 -7 684 -33 684 -47 c 0
 684 -213 479 -302 335 -302 c 0
 185 -301 64 -223 64 -44 c 0
EndSplineSet
Colour: ffda6b
EndChar

StartChar: _.vav.isol
Encoding: 65590 -1 54
GlifName: _.vav.isol
Width: 540
VWidth: 1304
GlyphClass: 1
UnlinkRmOvrlpSave: 1
Flags: HMW
LayerCount: 2
Fore
SplineSet
125 139 m 1
 125 240 185 399 300 399 c 0
 417 399 476 242 476 99 c 0
 476 64 473 31 466 -0 c 0
 427 -182 247 -301 147 -301 c 0
 123 -301 64 -242 64 -225 c 0
 64 -222 65 -221 68 -221 c 0
 194 -221 360 -89 392 8 c 0
 393 10 393 14 394 16 c 1
 360 4 327 0 270 -0 c 0
 184 0 124 36 125 139 c 1
195 163 m 0
 195 123 222 100 279 100 c 0
 320 100 355 101 394 116 c 1
 382 205 344 297 289 297 c 0
 236 297 213 241 201 199 c 0
 197 186 195 174 195 163 c 0
EndSplineSet
Colour: ffda6b
EndChar

StartChar: _.vav.fina
Encoding: 65591 -1 55
GlifName: _.vav.fina
Width: 605
VWidth: 1304
GlyphClass: 1
UnlinkRmOvrlpSave: 1
Flags: HMW
LayerCount: 2
Fore
SplineSet
125 139 m 1
 125 240 184 399 300 399 c 0
 418 399 476 243 476 100 c 1
 605 100 l 1
 605 -0 l 1
 464 -0 l 1
 425 -182 247 -301 147 -301 c 0
 123 -301 64 -242 64 -225 c 0
 64 -222 65 -221 68 -221 c 0
 190 -221 350 -96 389 -0 c 1
 270 -0 l 2
 184 0 124 36 125 139 c 1
195 162 m 0
 195 123 222 100 279 100 c 2
 396 100 l 1
 388 194 346 297 289 297 c 0
 236 297 213 241 201 199 c 0
 197 185 195 173 195 162 c 0
EndSplineSet
Colour: ffda6b
EndChar

StartChar: _.dal.isol
Encoding: 65592 -1 56
GlifName: _.dal.isol
Width: 510
VWidth: 1304
GlyphClass: 1
UnlinkRmOvrlpSave: 1
Flags: HMW
LayerCount: 2
Fore
SplineSet
188 522 m 1
 346 459 446 317 446 188 c 0
 446 121 431 87 409 65 c 0
 368 20 296 1 228 1 c 0
 167 1 110 17 82 43 c 0
 71 54 64 97 64 127 c 0
 64 144 66 156 71 156 c 0
 72 156 73 156 74 155 c 0
 113 118 171 102 228 102 c 0
 287 102 346 119 385 145 c 1
 373 237 293 356 160 422 c 1
 188 522 l 1
EndSplineSet
Colour: ffda6b
EndChar

StartChar: _.dal.fina
Encoding: 65593 -1 57
GlifName: _.dal.fina
Width: 604
VWidth: 1304
GlyphClass: 1
UnlinkRmOvrlpSave: 1
Flags: HMW
LayerCount: 2
Fore
SplineSet
378 140 m 1
 333 227 305 316 265 420 c 1
 321 521 l 1
 352 430 379 355 404 293 c 0
 441 199 480 100 604 100 c 1
 604 -0 l 1
 515 0 460 28 418 77 c 1
 380 24 302 1 228 1 c 0
 167 1 110 17 82 43 c 0
 71 54 64 97 64 127 c 0
 64 144 66 156 71 156 c 0
 72 156 73 156 74 155 c 0
 114 118 171 102 228 102 c 0
 283 102 339 116 378 140 c 1
EndSplineSet
Colour: ffda6b
EndChar

StartChar: _.ree.isol
Encoding: 65594 -1 58
GlifName: _.ree.isol
Width: 537
VWidth: 1304
GlyphClass: 1
UnlinkRmOvrlpSave: 1
Flags: HMW
LayerCount: 2
Fore
SplineSet
64 -225 m 0
 64 -223 65 -221 68 -221 c 0
 197 -221 369 -81 395 16 c 0
 396 22 397 28 397 35 c 0
 397 100 349 178 321 235 c 1
 398 300 l 1
 452 200 473 132 473 80 c 0
 473 77 473 75 473 72 c 0
 473 -150 260 -301 148 -301 c 0
 123 -301 64 -242 64 -225 c 0
EndSplineSet
Colour: ffda6b
EndChar

StartChar: _.ree.fina
Encoding: 65595 -1 59
GlifName: _.ree.fina
Width: 623
VWidth: 1304
GlyphClass: 1
UnlinkRmOvrlpSave: 1
Flags: HMW
LayerCount: 2
Fore
SplineSet
64 -225 m 0
 64 -223 65 -221 68 -221 c 0
 197 -221 369 -81 395 16 c 0
 396 22 397 28 397 35 c 0
 397 100 349 178 321 235 c 1
 398 300 l 1
 431 237 452 187 463 146 c 1
 490 118 539 100 623 100 c 1
 623 -0 l 1
 557 0 507 11 470 32 c 1
 447 -169 253 -301 148 -301 c 0
 123 -301 64 -242 64 -225 c 0
EndSplineSet
Colour: ffda6b
EndChar

StartChar: _.he8.isol
Encoding: 65596 -1 60
GlifName: _.he8.isol
Width: 471
VWidth: 1304
GlyphClass: 1
UnlinkRmOvrlpSave: 1
Flags: HMW
LayerCount: 2
Fore
SplineSet
237 -0 m 1
 230 0 224 0 217 -0 c 1
 217 1 l 1
 113 7 64 61 64 141 c 0
 64 184 78 234 105 289 c 2
 154 388 l 1
 124 415 l 1
 173 502 l 1
 392 318 407 244 407 180 c 0
 407 174 407 168 407 162 c 0
 407 73 345 7 237 1 c 1
 237 -0 l 1
126 176 m 0
 126 139 148 103 237 100 c 1
 294 102 351 126 351 163 c 0
 351 203 300 258 195 352 c 1
 146 247 l 2
 140 233 126 205 126 176 c 0
EndSplineSet
Colour: ffda6b
EndChar

StartChar: _.he8.fina
Encoding: 65597 -1 61
GlifName: _.he8.fina
Width: 542
VWidth: 1304
GlyphClass: 1
UnlinkRmOvrlpSave: 1
Flags: HMW
LayerCount: 2
Fore
SplineSet
64 235 m 0
 64 268 79 305 106 337 c 0
 134 369 175 420 270 485 c 1
 260 544 l 1
 335 577 l 1
 395 200 l 2
 397 180 402 154 409 140 c 0
 426 104 485 100 542 100 c 1
 542 -0 l 1
 415 0 341 40 327 130 c 1
 327 144 l 1
 301 133 261 126 220 126 c 0
 200 126 180 128 161 132 c 0
 94 146 64 187 64 235 c 0
133 260 m 0
 133 241 195 233 231 233 c 0
 259 233 287 236 309 242 c 1
 282 411 l 1
 250 386 183 332 151 293 c 0
 140 280 133 269 133 260 c 0
EndSplineSet
Colour: ffda6b
EndChar

StartChar: _.he8.medi
Encoding: 65598 -1 62
GlifName: _.he8.medi
Width: 543
VWidth: 1304
GlyphClass: 1
UnlinkRmOvrlpSave: 1
Flags: HMW
LayerCount: 2
Fore
SplineSet
364 221 m 0
 364 97 267 1 185 -0 c 1
 210 -42 247 -78 291 -106 c 1
 283 -89 279 -72 279 -55 c 0
 279 27 362 100 418 100 c 2
 543 100 l 1
 543 -0 l 1
 401 -0 l 2
 370 0 335 -28 335 -64 c 0
 335 -95 361 -132 442 -160 c 1
 397 -243 l 1
 246 -206 150 -112 111 -0 c 1
 -4 -0 l 1
 -27 2 -50 25 -50 50 c 0
 -50 73 -27 98 -4 100 c 1
 90 100 l 1
 89 109 89 118 89 127 c 0
 89 238 138 351 232 431 c 1
 318 383 364 328 364 221 c 0
169 100 m 2
 226 100 316 122 316 195 c 0
 316 228 292 267 233 309 c 1
 174 254 148 190 148 127 c 0
 148 118 148 109 149 100 c 1
 169 100 l 2
EndSplineSet
Colour: ffda6b
EndChar

StartChar: _.he8.init
Encoding: 65599 -1 63
GlifName: _.he8.init
Width: 595
VWidth: 1304
GlyphClass: 1
UnlinkRmOvrlpSave: 1
Flags: HMW
LayerCount: 2
Fore
SplineSet
-50 50 m 0
 -49 76 -25 100 0 100 c 2
 21 100 l 2
 54 100 81 107 108 122 c 1
 68 160 40 204 40 249 c 0
 40 276 50 303 72 329 c 1
 92 359 127 402 170 433 c 1
 148 448 131 459 122 464 c 1
 152 572 l 1
 218 528 275 488 323 452 c 1
 328 452 l 1
 330 450 333 444 335 442 c 0
 477 330 531 252 531 175 c 0
 531 150 525 126 515 100 c 0
 491 33 439 -1 374 -1 c 0
 321 -1 249 25 183 64 c 1
 131 25 74 0 21 -0 c 2
 0 -0 l 1
 0 10 l 1
 0 -0 l 1
 -25 0 -50 24 -50 50 c 0
283 316 m 0
 283 356 258 379 218 379 c 0
 190 379 158 366 133 337 c 1
 119 324 113 308 113 293 c 0
 113 256 148 216 197 181 c 1
 214 195 235 208 257 224 c 1
 273 255 283 288 283 316 c 0
348 299 m 1
 331 247 295 185 261 143 c 1
 314 117 371 99 412 99 c 0
 443 99 473 110 473 140 c 0
 473 180 417 241 348 299 c 1
EndSplineSet
Colour: ffda6b
EndChar

StartChar: _.yeh.fina
Encoding: 65600 -1 64
GlifName: _.yeh.fina
Width: 782
VWidth: 1304
GlyphClass: 1
UnlinkRmOvrlpSave: 1
Flags: HMW
LayerCount: 2
Fore
SplineSet
64 -72 m 0
 64 4 83 90 106 168 c 1
 154 157 l 1
 138 92 127 31 127 -22 c 0
 127 -129 173 -200 316 -200 c 0
 417 -200 531 -155 580 -112 c 0
 587 -105 591 -97 591 -89 c 0
 591 -36 445 26 383 51 c 1
 423 151 l 1
 528 123 591 100 782 100 c 1
 782 -0 l 1
 722 0 673 6 627 13 c 1
 648 -14 662 -43 662 -75 c 0
 662 -84 661 -94 658 -104 c 0
 635 -209 473 -301 308 -301 c 0
 119 -301 64 -199 64 -72 c 0
EndSplineSet
Colour: ffda6b
EndChar

StartChar: _.yeh.isol
Encoding: 65601 -1 65
GlifName: _.yeh.isol
Width: 766
VWidth: 1304
GlyphClass: 1
UnlinkRmOvrlpSave: 1
Flags: HMW
LayerCount: 2
Fore
SplineSet
64 29 m 0
 64 105 83 190 106 268 c 1
 154 257 l 1
 138 192 127 132 127 79 c 0
 127 -28 173 -100 316 -100 c 0
 412 -100 518 -61 571 -20 c 0
 578 -14 587 -8 593 1 c 1
 593 2 l 1
 601 11 605 19 605 26 c 0
 605 35 598 42 582 48 c 2
 383 120 l 2
 366 126 360 149 360 177 c 0
 360 220 375 278 393 308 c 1
 438 410 525 485 669 485 c 0
 680 485 691 485 702 484 c 1
 667 380 l 1
 665 380 663 380 661 380 c 0
 543 380 463 340 428 219 c 1
 609 146 l 2
 656 127 669 89 669 53 c 0
 669 31 664 10 658 -4 c 1
 635 -107 473 -201 308 -201 c 0
 119 -200 64 -98 64 29 c 0
EndSplineSet
Colour: ffda6b
EndChar

StartChar: _.hamze.isol
Encoding: 65606 -1 66
GlifName: _.hamze.isol
Width: 515
VWidth: 1304
GlyphClass: 2
Flags: HMW
LayerCount: 2
Fore
SplineSet
312 339 m 0
 243 339 167 301 167 258 c 0
 167 216 207 179 246 157 c 1
 419 239 l 1
 451 170 l 1
 96 5 l 1
 64 74 l 1
 169 123 l 1
 118 158 103 201 103 243 c 0
 103 255 104 267 106 279 c 0
 118 348 178 418 292 418 c 0
 313 418 335 416 359 411 c 1
 343 336 l 1
 333 338 323 339 312 339 c 0
EndSplineSet
Colour: ffda6b
EndChar

StartChar: _.keshide.medi
Encoding: 65607 -1 67
GlifName: _.keshide.medi
Width: 236
VWidth: 1304
GlyphClass: 2
Flags: HMW
LayerCount: 2
Fore
SplineSet
-50 50 m 128
 -50 76 -36 100 -12 100 c 2
 236 100 l 1
 236 0 l 1
 -12 0 l 2
 -36 0 -50 24 -50 50 c 128
EndSplineSet
Colour: ffda6b
EndChar

StartChar: _.dot.1u
Encoding: 65608 -1 68
GlifName: _.dot.1u
Width: 0
VWidth: 1304
GlyphClass: 2
Flags: HMW
LayerCount: 2
Fore
SplineSet
0 56 m 0
 0 86 24 112 54 112 c 0
 85 112 110 86 110 56 c 1
 110 56 l 1
 110 25 85 1 54 1 c 1
 54 1 l 1
 24 1 0 25 0 56 c 0
EndSplineSet
Colour: ffda6b
EndChar

StartChar: _.dot.2u
Encoding: 65609 -1 69
GlifName: _.dot.2u
Width: 0
VWidth: 1304
GlyphClass: 2
UnlinkRmOvrlpSave: 1
Flags: HMW
LayerCount: 2
Fore
SplineSet
0 50 m 0
 0 77 22 101 50 101 c 0
 77 101 100 77 100 50 c 0
 100 23 77 0 50 -0 c 0
 22 0 0 23 0 50 c 0
140 50 m 0
 140 77 163 101 190 101 c 0
 218 101 240 77 240 50 c 0
 240 23 218 0 190 -0 c 0
 163 0 140 23 140 50 c 0
EndSplineSet
Colour: ffda6b
EndChar

StartChar: _.dot.3u
Encoding: 65610 -1 70
GlifName: _.dot.3u
Width: 0
VWidth: 1304
GlyphClass: 2
UnlinkRmOvrlpSave: 1
Flags: HMW
LayerCount: 2
Fore
SplineSet
0 50 m 0
 0 77 22 101 50 101 c 0
 77 101 100 77 100 50 c 0
 100 23 77 0 50 -0 c 0
 22 0 0 23 0 50 c 0
75 170 m 0
 75 196 97 216 123 216 c 0
 149 216 170 196 170 170 c 0
 170 144 149 122 123 122 c 0
 97 122 75 144 75 170 c 0
140 50 m 0
 140 77 163 101 190 101 c 0
 218 101 240 77 240 50 c 0
 240 23 218 0 190 -0 c 0
 163 0 140 23 140 50 c 0
EndSplineSet
Colour: ffda6b
EndChar

StartChar: _.dot.1d
Encoding: 65611 -1 71
GlifName: _.dot.1d
Width: 0
VWidth: 1304
GlyphClass: 2
Flags: HMW
LayerCount: 2
Fore
SplineSet
0 -59 m 0
 0 -28 24 -4 54 -4 c 0
 85 -4 110 -28 110 -59 c 1
 110 -59 l 1
 110 -89 85 -113 54 -113 c 1
 54 -113 l 1
 24 -113 0 -89 0 -59 c 0
EndSplineSet
Colour: ffda6b
EndChar

StartChar: _.dot.2d
Encoding: 65612 -1 72
GlifName: _.dot.2d
Width: 0
VWidth: 1304
GlyphClass: 2
UnlinkRmOvrlpSave: 1
Flags: HMW
LayerCount: 2
Fore
SplineSet
0 -49 m 0
 0 -21 22 1 50 1 c 0
 77 1 100 -21 100 -49 c 0
 100 -76 77 -99 50 -99 c 0
 22 -99 0 -76 0 -49 c 0
140 -49 m 0
 140 -21 163 1 190 1 c 0
 218 1 240 -21 240 -49 c 0
 240 -76 218 -99 190 -99 c 0
 163 -99 140 -76 140 -49 c 0
EndSplineSet
Colour: ffda6b
EndChar

StartChar: _.dot.3d
Encoding: 65613 -1 73
GlifName: _.dot.3d
Width: 0
VWidth: 1304
GlyphClass: 2
UnlinkRmOvrlpSave: 1
Flags: HMW
LayerCount: 2
Fore
SplineSet
0 -49 m 0
 0 -21 22 1 50 1 c 0
 77 1 100 -21 100 -49 c 0
 100 -76 77 -99 50 -99 c 0
 22 -99 0 -76 0 -49 c 0
75 -169 m 0
 75 -142 97 -121 123 -121 c 0
 149 -121 170 -142 170 -168 c 0
 170 -195 149 -216 123 -216 c 0
 97 -216 75 -195 75 -169 c 0
140 -49 m 0
 140 -21 163 1 190 1 c 0
 218 1 240 -21 240 -49 c 0
 240 -76 218 -99 190 -99 c 0
 163 -99 140 -76 140 -49 c 0
EndSplineSet
Colour: ffda6b
EndChar

StartChar: _.num.0
Encoding: 65615 -1 75
GlifName: _.num.0
Width: 450
VWidth: 1424
GlyphClass: 2
Flags: HMW
LayerCount: 2
Fore
SplineSet
75 327 m 0
 75 409 143 477 225 477 c 0
 307 477 375 409 375 327 c 0
 375 245 307 177 225 177 c 0
 143 177 75 245 75 327 c 0
150 327 m 0
 150 286 183 252 225 252 c 0
 267 252 300 286 300 327 c 0
 300 369 267 402 225 402 c 0
 183 402 150 369 150 327 c 0
EndSplineSet
Colour: ffda6b
EndChar

StartChar: _.num.1
Encoding: 65616 -1 76
GlifName: _.num.1
Width: 350
VWidth: 1331
GlyphClass: 2
Flags: HMW
LayerCount: 2
Fore
SplineSet
75 699 m 1
 173 799 l 1
 265 534 275 280 275 68 c 0
 275 45 274 22 274 -0 c 1
 173 -20 l 1
 172 197 175 429 75 699 c 1
EndSplineSet
Colour: ffda6b
EndChar

StartChar: _.num.2
Encoding: 65617 -1 77
GlifName: _.num.2
Width: 629
VWidth: 1331
GlyphClass: 2
Flags: HMW
LayerCount: 2
Fore
SplineSet
75 699 m 1
 173 799 l 1
 201 719 221 640 236 562 c 1
 274 533 314 522 349 522 c 0
 414 522 464 562 462 601 c 2
 455 752 l 1
 548 758 l 1
 554 614 l 1
 555 475 452 401 343 401 c 0
 315 401 286 406 258 416 c 1
 271 291 275 173 275 66 c 0
 275 43 274 22 274 -0 c 1
 173 -20 l 1
 172 197 175 429 75 699 c 1
EndSplineSet
Colour: ffda6b
EndChar

StartChar: _.num.3
Encoding: 65618 -1 78
GlifName: _.num.3
Width: 849
VWidth: 1331
GlyphClass: 2
Flags: HMW
LayerCount: 2
Fore
SplineSet
75 699 m 1
 173 799 l 1
 204 712 225 625 240 540 c 1
 267 527 294 522 318 522 c 0
 383 522 433 562 431 601 c 2
 425 752 l 1
 517 758 l 1
 523 614 l 2
 523 591 521 569 516 551 c 1
 535 545 553 542 570 542 c 0
 635 542 684 581 682 620 c 2
 676 772 l 1
 768 779 l 1
 774 634 l 1
 775 495 672 421 563 421 c 0
 531 421 497 428 466 441 c 1
 446 444 l 1
 409 415 360 401 311 401 c 0
 294 401 275 402 258 406 c 1
 271 285 275 170 275 65 c 0
 275 43 274 21 274 -0 c 1
 173 -20 l 1
 172 197 175 429 75 699 c 1
EndSplineSet
Colour: ffda6b
EndChar

StartChar: _.num.4.fa
Encoding: 65619 -1 79
GlifName: _.num.4.fa
Width: 741
VWidth: 1331
GlyphClass: 2
Flags: HMW
LayerCount: 2
Fore
SplineSet
75 699 m 1
 173 799 l 1
 209 696 232 594 247 496 c 1
 259 489 272 482 284 477 c 1
 272 513 266 552 266 589 c 0
 266 616 270 641 276 663 c 0
 303 759 383 797 464 797 c 0
 532 797 600 770 635 729 c 1
 608 652 l 1
 578 668 527 681 475 681 c 0
 434 681 393 673 361 652 c 1
 361 645 360 639 360 632 c 0
 360 558 385 494 426 437 c 1
 436 436 446 436 455 436 c 0
 527 436 586 459 643 479 c 1
 666 379 l 1
 577 344 488 328 409 328 c 0
 355 328 307 335 265 348 c 1
 274 245 274 149 274 59 c 0
 274 39 274 19 274 -0 c 1
 173 -20 l 1
 172 197 175 429 75 699 c 1
EndSplineSet
Colour: ffda6b
EndChar

StartChar: _.num.5.fa
Encoding: 65621 -1 81
GlifName: _.num.5.fa
Width: 742
VWidth: 1331
GlyphClass: 2
Flags: HMW
LayerCount: 2
Fore
SplineSet
227 -7 m 0
 146 -7 75 54 75 162 c 0
 75 206 89 385 291 652 c 1
 368 593 l 1
 227 402 182 277 182 204 c 0
 182 147 210 122 241 122 c 0
 282 122 329 166 329 238 c 0
 329 242 329 247 329 251 c 1
 414 273 l 1
 414 273 414 271 414 268 c 0
 414 256 414 225 421 191 c 0
 430 151 472 129 509 129 c 0
 544 129 570 146 570 185 c 0
 570 233 554 483 222 703 c 1
 283 800 l 1
 283 800 657 575 667 188 c 1
 667 188 671 7 539 -0 c 0
 525 0 510 -2 493 -2 c 0
 446 -2 393 9 366 80 c 1
 335 21 280 -7 227 -7 c 0
EndSplineSet
Colour: ffda6b
EndChar

StartChar: _.num.6.fa
Encoding: 65623 -1 83
GlifName: _.num.6.fa
Width: 801
VWidth: 1331
GlyphClass: 2
Flags: HMW
LayerCount: 2
Fore
SplineSet
75 42 m 1
 165 126 266 221 385 311 c 1
 297 361 234 482 234 562 c 0
 234 565 234 568 234 571 c 0
 245 727 365 795 517 795 c 0
 568 795 622 788 678 773 c 1
 663 681 l 1
 647 684 628 685 609 685 c 0
 503 685 362 646 334 575 c 1
 366 495 412 420 481 379 c 1
 556 429 637 477 726 516 c 1
 721 375 l 1
 456 263 289 102 130 -47 c 1
 75 42 l 1
EndSplineSet
Colour: ffda6b
EndChar

StartChar: _.num.6.ar
Encoding: 65624 -1 84
GlifName: _.num.6.ar
Width: 800
VWidth: 1331
GlyphClass: 2
Flags: HMW
LayerCount: 2
Fore
SplineSet
100 80 m 1
 229 340 348 582 349 799 c 1
 452 779 l 1
 459 567 574 331 700 80 c 1
 601 -20 l 1
 547 90 455 301 400 497 c 1
 343 301 252 90 198 -20 c 1
 100 80 l 1
EndSplineSet
Colour: ffda6b
EndChar

StartChar: _.num.7
Encoding: 65625 -1 85
GlifName: _.num.7
Width: 750
VWidth: 1331
GlyphClass: 2
Flags: HMW
LayerCount: 2
Fore
SplineSet
75 699 m 1
 173 799 l 1
 227 689 318 478 375 282 c 1
 430 478 522 689 576 799 c 1
 675 699 l 1
 549 448 434 213 427 -0 c 1
 324 -20 l 1
 323 197 204 440 75 699 c 1
EndSplineSet
Colour: ffda6b
EndChar

StartChar: _.num.8
Encoding: 65626 -1 86
GlifName: _.num.8
Width: 751
VWidth: 1331
GlyphClass: 2
Flags: HMW
LayerCount: 2
Fore
SplineSet
75 80 m 1
 228 305 329 581 334 779 c 1
 417 799 l 1
 416 600 518 313 676 80 c 1
 577 -20 l 1
 482 141 414 335 375 506 c 1
 336 335 268 141 173 -20 c 1
 75 80 l 1
EndSplineSet
Colour: ffda6b
EndChar

StartChar: _.num.9
Encoding: 65627 -1 87
GlifName: _.num.9
Width: 606
VWidth: 1331
GlyphClass: 2
Flags: HMW
LayerCount: 2
Fore
SplineSet
441 500 m 0
 441 496 441 491 441 487 c 0
 443 464 452 417 453 391 c 0
 467 293 490 190 531 80 c 1
 432 -20 l 1
 385 117 360 251 346 378 c 1
 317 372 292 370 268 370 c 0
 130 370 75 458 75 555 c 0
 75 672 154 800 262 800 c 0
 356 800 440 702 441 500 c 0
174 568 m 0
 174 523 198 482 261 482 c 0
 281 482 306 486 335 496 c 1
 336 501 336 507 336 511 c 0
 335 526 335 540 334 554 c 0
 325 641 287 679 246 679 c 0
 208 679 174 621 174 568 c 0
EndSplineSet
Colour: ffda6b
EndChar

StartChar: _.sing.backslash
Encoding: 65628 -1 88
GlifName: _.sing.backslash
Width: 442
VWidth: 1197
GlyphClass: 2
Flags: HMW
LayerCount: 2
Fore
SplineSet
50 720 m 1
 151 720 l 1
 392 -14 l 1
 290 -14 l 1
 50 720 l 1
EndSplineSet
Colour: ffda6b
EndChar

StartChar: _.sing.slash
Encoding: 65629 -1 89
GlifName: _.sing.slash
Width: 442
VWidth: 1197
GlyphClass: 2
Flags: HMW
LayerCount: 2
Fore
SplineSet
50 -14 m 1
 290 720 l 1
 392 720 l 1
 151 -14 l 1
 50 -14 l 1
EndSplineSet
Colour: ffda6b
EndChar

StartChar: _.sing.tajob
Encoding: 65630 -1 90
GlifName: _.sing.tajob
Width: 255
VWidth: 1197
GlyphClass: 2
Flags: HMW
LayerCount: 2
Fore
SplineSet
50 81 m 1
 128 159 l 1
 205 81 l 1
 128 5 l 1
 50 81 l 1
77 756 m 1
 177 756 l 1
 161 220 l 1
 94 220 l 1
 77 756 l 1
EndSplineSet
Colour: ffda6b
EndChar

StartChar: _.sing.soal
Encoding: 65631 -1 91
GlifName: _.sing.soal
Width: 460
VWidth: 1304
GlyphClass: 2
Flags: HMW
LayerCount: 2
Fore
SplineSet
229 759 m 0
 366 759 410 670 410 535 c 2
 410 503 l 1
 333 503 l 1
 333 535 l 2
 333 629 299 677 229 677 c 0
 184 677 155 648 139 617 c 0
 133 603 130 590 130 575 c 0
 130 535 148 511 166 487 c 0
 187 458 213 429 232 396 c 0
 252 358 268 315 268 255 c 2
 268 215 l 1
 202 215 l 1
 202 242 l 2
 202 319 165 369 127 410 c 0
 115 426 102 441 90 457 c 0
 69 487 50 520 50 570 c 0
 50 573 50 576 50 579 c 0
 50 631 72 674 98 702 c 0
 125 735 172 759 229 759 c 0
157 77 m 1
 235 155 l 1
 312 77 l 1
 235 -0 l 1
 157 77 l 1
EndSplineSet
Colour: ffda6b
EndChar

StartChar: _.sing.beezafeh
Encoding: 65632 -1 92
GlifName: _.sing.beezafeh
Width: 494
VWidth: 1352
GlyphClass: 2
Flags: HMW
LayerCount: 2
Fore
SplineSet
50 263 m 1
 50 335 l 1
 211 335 l 1
 211 495 l 1
 283 495 l 1
 283 335 l 1
 444 335 l 1
 444 263 l 1
 283 263 l 1
 283 103 l 1
 211 103 l 1
 211 263 l 1
 50 263 l 1
EndSplineSet
Colour: ffda6b
EndChar

StartChar: _.sing.menha
Encoding: 65633 -1 93
GlifName: _.sing.menha
Width: 487
VWidth: 0
GlyphClass: 2
Flags: HMW
LayerCount: 2
Fore
SplineSet
50 215 m 1
 50 287 l 1
 437 287 l 1
 437 215 l 1
 50 215 l 1
243 58 m 0
 216 58 195 79 195 106 c 0
 195 132 216 154 243 154 c 0
 270 154 293 132 293 106 c 0
 293 79 270 58 243 58 c 0
243 348 m 0
 216 348 195 370 195 396 c 0
 195 422 216 444 243 444 c 0
 270 444 293 422 293 396 c 0
 293 370 270 348 243 348 c 0
EndSplineSet
Colour: ffda6b
EndChar

StartChar: _.sing.virgul
Encoding: 65635 -1 95
GlifName: _.sing.virgul
Width: 258
VWidth: 1197
GlyphClass: 2
Flags: HMW
LayerCount: 2
Fore
SplineSet
130 103 m 1
 95 138 50 167 50 236 c 0
 51 267 62 296 80 326 c 0
 97 356 120 384 147 410 c 1
 195 362 l 1
 188 356 182 348 176 341 c 0
 159 324 136 301 136 269 c 0
 136 241 164 224 180 208 c 0
 189 199 199 191 208 182 c 1
 130 103 l 1
EndSplineSet
Colour: ffda6b
EndChar

StartChar: _.sing.dot_virgul
Encoding: 65636 -1 96
GlifName: _.sing.dot_virgul
Width: 256
VWidth: 1304
GlyphClass: 2
Flags: HMW
LayerCount: 2
Fore
SplineSet
129 210 m 1
 94 245 50 273 50 343 c 0
 53 418 102 474 147 517 c 1
 194 469 l 1
 175 450 153 428 142 402 c 0
 138 395 136 387 136 380 c 0
 133 362 142 350 152 340 c 0
 171 324 188 307 206 289 c 1
 129 210 l 1
51 66 m 1
 129 144 l 1
 206 66 l 1
 129 -11 l 1
 51 66 l 1
EndSplineSet
Colour: ffda6b
EndChar

StartChar: _.sing.2noqte
Encoding: 65637 -1 97
GlifName: _.sing.2noqte
Width: 255
VWidth: 1352
GlyphClass: 2
Flags: HMW
LayerCount: 2
Fore
SplineSet
50 106 m 1
 128 183 l 1
 205 106 l 1
 128 29 l 1
 50 106 l 1
50 327 m 1
 128 406 l 1
 205 327 l 1
 128 250 l 1
 50 327 l 1
EndSplineSet
Colour: ffda6b
EndChar

StartChar: _.sing.noqte
Encoding: 65638 -1 98
GlifName: _.sing.noqte
Width: 254
VWidth: 1352
GlyphClass: 2
Flags: HMW
LayerCount: 2
Fore
SplineSet
50 136 m 1
 128 214 l 1
 204 136 l 1
 128 59 l 1
 50 136 l 1
EndSplineSet
Colour: ffda6b
EndChar

StartChar: _.sing.gheiomeh.right
Encoding: 65639 -1 99
GlifName: _.sing.gheiomeh.right
Width: 425
VWidth: 1352
GlyphClass: 2
Flags: HMW
LayerCount: 2
Fore
SplineSet
172 -48 m 1
 109 27 50 119 50 241 c 0
 50 291 61 341 82 389 c 0
 104 438 134 485 172 529 c 1
 226 484 l 1
 171 421 132 344 132 241 c 0
 132 138 171 62 226 -1 c 1
 172 -48 l 1
326 -40 m 1
 264 36 212 118 212 241 c 0
 212 363 264 446 326 521 c 1
 375 480 l 1
 321 414 286 346 286 241 c 0
 286 136 321 66 375 2 c 1
 326 -40 l 1
EndSplineSet
Colour: ffda6b
EndChar

StartChar: _.sing.gheiomeh.left
Encoding: 65640 -1 100
GlifName: _.sing.gheiomeh.left
Width: 426
VWidth: 1352
GlyphClass: 2
Flags: HMW
LayerCount: 2
Fore
SplineSet
139 241 m 0
 139 346 104 414 50 480 c 1
 99 521 l 1
 136 477 164 431 184 385 c 0
 204 339 214 291 214 241 c 0
 214 119 160 35 99 -40 c 1
 50 2 l 1
 104 66 139 136 139 241 c 0
199 -3 m 1
 253 61 294 138 294 241 c 0
 294 283 286 323 270 364 c 0
 255 405 232 446 199 484 c 1
 253 529 l 1
 291 485 321 438 343 389 c 0
 365 341 376 291 376 241 c 0
 376 191 365 141 343 92 c 0
 321 44 291 -2 253 -48 c 1
 199 -3 l 1
EndSplineSet
Colour: ffda6b
EndChar

StartChar: _.sing.parantez.right
Encoding: 65641 -1 101
GlifName: _.sing.parantez.right
Width: 309
VWidth: 1352
GlyphClass: 2
Flags: HMW
LayerCount: 2
Fore
SplineSet
259 665 m 1
 193 569 134 458 134 299 c 0
 134 142 192 28 259 -65 c 1
 201 -106 l 1
 144 -28 93 75 65 183 c 0
 55 221 50 260 50 299 c 0
 50 385 76 461 102 525 c 0
 130 590 165 653 201 705 c 1
 259 665 l 1
EndSplineSet
Colour: ffda6b
EndChar

StartChar: _.sing.parantez.left
Encoding: 65642 -1 102
GlifName: _.sing.parantez.left
Width: 309
VWidth: 1352
GlyphClass: 2
Flags: HMW
LayerCount: 2
Fore
SplineSet
176 299 m 0
 176 459 116 569 50 665 c 1
 108 705 l 1
 124 680 142 654 160 624 c 0
 194 563 226 492 245 416 c 0
 255 377 259 338 259 299 c 0
 259 213 235 138 208 74 c 0
 181 10 143 -55 108 -106 c 1
 50 -65 l 1
 103 9 147 94 167 199 c 0
 173 231 176 265 176 299 c 0
EndSplineSet
Colour: ffda6b
EndChar

StartChar: _.sing.koroshe.right
Encoding: 65645 -1 105
GlifName: _.sing.koroshe.right
Width: 276
VWidth: 1197
GlyphClass: 2
Flags: HMW
LayerCount: 2
Fore
SplineSet
50 -57 m 1
 50 795 l 1
 226 795 l 1
 226 725 l 1
 120 725 l 1
 120 13 l 1
 226 13 l 1
 226 -57 l 1
 50 -57 l 1
EndSplineSet
Colour: ffda6b
EndChar

StartChar: _.sing.koroshe.left
Encoding: 65646 -1 106
GlifName: _.sing.koroshe.left
Width: 276
VWidth: 1197
GlyphClass: 2
Flags: HMW
LayerCount: 2
Fore
SplineSet
50 13 m 1
 156 13 l 1
 156 725 l 1
 50 725 l 1
 50 795 l 1
 226 795 l 1
 226 -57 l 1
 50 -57 l 1
 50 13 l 1
EndSplineSet
Colour: ffda6b
EndChar

StartChar: _.sing.akolad.right
Encoding: 65647 -1 107
GlifName: _.sing.akolad.right
Width: 327
VWidth: 1197
GlyphClass: 2
Flags: HMW
LayerCount: 2
Fore
SplineSet
245 -125 m 2
 164 -125 135 -84 131 -9 c 0
 131 14 130 38 130 63 c 2
 130 132 l 1
 127 195 115 266 50 266 c 1
 50 289 50 313 50 336 c 1
 116 336 127 408 130 471 c 1
 130 540 l 2
 130 565 131 589 131 612 c 0
 135 687 164 727 245 727 c 2
 277 727 l 1
 277 657 l 1
 263 657 l 2
 215 657 198 634 198 587 c 0
 197 571 196 551 196 528 c 0
 196 432 194 327 125 301 c 1
 194 275 196 171 196 75 c 0
 196 52 197 32 198 16 c 0
 198 -31 215 -54 263 -54 c 2
 277 -54 l 1
 277 -125 l 1
 245 -125 l 2
EndSplineSet
Colour: ffda6b
EndChar

StartChar: _.sing.akolad.left
Encoding: 65648 -1 108
GlifName: _.sing.akolad.left
Width: 327
VWidth: 1197
GlyphClass: 2
Flags: HMW
LayerCount: 2
Fore
SplineSet
194 -9 m 0
 194 -83 160 -125 82 -125 c 2
 50 -125 l 1
 50 -54 l 1
 62 -54 l 2
 113 -54 125 -31 129 16 c 0
 129 32 130 52 130 75 c 0
 130 171 131 276 201 301 c 1
 131 326 130 432 130 528 c 0
 130 551 129 571 129 587 c 0
 125 634 113 657 62 657 c 2
 50 657 l 1
 50 727 l 1
 82 727 l 2
 160 727 194 686 194 612 c 0
 195 589 195 565 195 540 c 0
 195 454 192 336 277 336 c 1
 277 313 277 289 277 266 c 1
 232 266 214 234 205 197 c 0
 200 177 196 155 196 130 c 0
 195 107 195 85 195 63 c 0
 195 38 195 14 194 -9 c 0
EndSplineSet
Colour: ffda6b
EndChar

StartChar: _.mark.maad
Encoding: 65649 -1 109
GlifName: _.mark.maad
Width: 0
VWidth: 1352
GlyphClass: 2
Flags: HMW
LayerCount: 2
Fore
SplineSet
0 26 m 1
 32 92 l 2
 44 119 64 138 89 138 c 0
 95 138 101 137 107 135 c 0
 141 125 180 120 221 120 c 0
 241 120 262 121 282 124 c 0
 309 129 333 141 359 148 c 1
 366 74 l 1
 340 65 315 54 288 50 c 0
 264 47 240 45 216 45 c 0
 171 45 126 51 86 65 c 1
 75 45 65 22 54 -0 c 1
 0 26 l 1
EndSplineSet
Colour: ffda6b
EndChar

StartChar: _.mark.fatheh
Encoding: 65650 -1 110
GlifName: _.mark.fatheh
Width: 0
VWidth: 2310
GlyphClass: 2
Flags: HMW
LayerCount: 2
Fore
SplineSet
0 45 m 1
 256 165 l 1
 278 114 l 1
 23 -5 l 1
 0 45 l 1
EndSplineSet
Colour: ffda6b
EndChar

StartChar: _.mark.kasreh
Encoding: 65651 -1 111
GlifName: _.mark.kasreh
Width: 0
VWidth: 2384
GlyphClass: 2
Flags: HMW
LayerCount: 2
Fore
SplineSet
0 -125 m 1
 256 -6 l 1
 278 -56 l 1
 23 -175 l 1
 0 -125 l 1
EndSplineSet
Colour: ffda6b
EndChar

StartChar: _.mark.zameh
Encoding: 65652 -1 112
GlifName: _.mark.zameh
Width: 0
VWidth: 2277
GlyphClass: 2
Flags: HMW
LayerCount: 2
Fore
SplineSet
203 280 m 1
 252 275 273 241 279 194 c 1
 279 132 240 95 193 74 c 1
 23 -5 l 1
 0 44 l 1
 177 127 l 2
 203 139 225 153 225 188 c 0
 225 204 211 221 195 221 c 0
 176 221 158 208 158 188 c 0
 158 161 172 149 185 134 c 0
 192 127 199 120 208 111 c 1
 167 82 l 1
 143 112 112 136 112 186 c 0
 112 241 149 280 203 280 c 1
EndSplineSet
Colour: ffda6b
EndChar

StartChar: _.mark.tanvin_fatheh
Encoding: 65653 -1 113
GlifName: _.mark.tanvin_fatheh
Width: 0
VWidth: 2280
GlyphClass: 2
Flags: HMW
LayerCount: 2
Fore
SplineSet
0 49 m 1
 256 168 l 1
 278 118 l 1
 23 -0 l 1
 0 49 l 1
0 170 m 1
 256 289 l 1
 278 240 l 1
 23 120 l 1
 0 170 l 1
EndSplineSet
Colour: ffda6b
EndChar

StartChar: _.mark.tanvin_kasreh
Encoding: 65654 -1 114
GlifName: _.mark.tanvin_kasreh
Width: 0
VWidth: 2413
GlyphClass: 2
Flags: HMW
LayerCount: 2
Fore
SplineSet
0 -120 m 1
 256 -1 l 1
 279 -51 l 1
 23 -170 l 1
 0 -120 l 1
0 -240 m 1
 256 -122 l 1
 279 -171 l 1
 23 -291 l 1
 0 -240 l 1
EndSplineSet
Colour: ffda6b
EndChar

StartChar: _.mark.tanvin_zameh
Encoding: 65655 -1 115
GlifName: _.mark.tanvin_zameh
Width: 0
VWidth: 2273
GlyphClass: 2
Flags: HMW
LayerCount: 2
Fore
SplineSet
0 151 m 1
 25 111 l 1
 32 116 38 117 44 123 c 0
 49 125 54 127 59 127 c 0
 70 127 73 113 73 101 c 0
 72 92 69 80 65 66 c 1
 106 90 l 1
 108 101 109 111 109 119 c 0
 109 154 91 178 59 178 c 0
 35 175 16 163 0 151 c 1
131 193 m 0
 131 247 168 288 222 288 c 1
 267 283 297 250 297 202 c 0
 297 200 297 198 297 196 c 0
 297 137 257 100 212 81 c 1
 42 2 l 1
 18 52 l 1
 196 134 l 2
 222 146 244 161 244 194 c 0
 244 211 230 229 213 229 c 0
 194 229 176 216 176 196 c 0
 176 169 190 156 203 141 c 0
 210 134 218 127 227 117 c 1
 186 90 l 1
 163 119 131 143 131 193 c 0
EndSplineSet
Colour: ffda6b
EndChar

StartChar: _.mark.tashdid
Encoding: 65656 -1 116
GlifName: _.mark.tashdid
Width: 0
VWidth: 1833
GlyphClass: 2
Flags: HMW
LayerCount: 2
Fore
SplineSet
81 55 m 0
 26 55 0 101 0 160 c 0
 0 187 3 213 5 239 c 1
 50 234 l 1
 49 223 48 210 48 199 c 0
 47 187 46 176 46 165 c 0
 46 137 55 103 81 103 c 0
 144 103 146 187 159 239 c 1
 198 231 l 1
 196 222 193 212 193 203 c 0
 186 177 182 155 176 132 c 1
 188 120 209 100 229 100 c 0
 248 100 267 116 267 134 c 0
 267 167 265 203 261 234 c 1
 308 239 l 1
 310 213 313 187 313 160 c 2
 313 145 l 2
 313 140 312 136 311 132 c 0
 311 98 285 79 265 63 c 0
 253 54 241 50 230 50 c 0
 219 50 207 54 195 61 c 0
 181 70 168 79 154 91 c 1
 141 73 111 55 81 55 c 0
EndSplineSet
Colour: ffda6b
EndChar

StartChar: _.mark.hamze
Encoding: 65657 -1 117
GlifName: _.mark.hamze
Width: 0
VWidth: 1841
GlyphClass: 2
Flags: HMW
LayerCount: 2
Fore
SplineSet
66 235 m 1
 79 206 104 175 132 159 c 1
 256 218 l 1
 279 167 l 1
 23 49 l 1
 0 98 l 1
 76 134 l 1
 55 150 43 168 32 193 c 0
 30 202 27 211 27 220 c 0
 18 293 85 334 155 334 c 0
 172 334 191 331 213 326 c 1
 202 273 l 1
 186 277 170 278 156 278 c 0
 112 274 88 260 66 235 c 1
EndSplineSet
Colour: ffda6b
EndChar

StartChar: _.mark.sakon
Encoding: 65658 -1 118
GlifName: _.mark.sakon
Width: 0
VWidth: 2099
GlyphClass: 2
Flags: HMW
LayerCount: 2
Fore
SplineSet
164 145 m 0
 164 97 130 60 82 60 c 0
 43 60 18 84 7 112 c 0
 2 122 0 133 0 145 c 0
 0 183 24 210 50 223 c 0
 60 227 70 229 82 229 c 0
 130 229 164 193 164 145 c 0
80 181 m 0
 60 181 43 164 43 144 c 0
 43 123 59 107 80 107 c 0
 102 107 118 123 118 144 c 0
 118 164 101 181 80 181 c 0
EndSplineSet
Colour: ffda6b
EndChar

StartChar: _.mark.alef
Encoding: 65659 -1 119
GlifName: _.mark.alef
Width: 0
VWidth: 2091
GlyphClass: 2
Flags: HMW
LayerCount: 2
Fore
SplineSet
0 245 m 1
 52 263 l 1
 83 178 89 120 89 26 c 1
 42 26 l 1
 42 112 28 167 0 245 c 1
EndSplineSet
Colour: ffda6b
EndChar

StartChar: _.sing.momaiez
Encoding: 65660 -1 120
GlifName: _.sing.momaiez
Width: 402
VWidth: 1352
GlyphClass: 2
Flags: HMW
LayerCount: 2
Fore
SplineSet
50 -189 m 1
 265 410 l 1
 352 400 l 1
 141 -198 l 1
 134 -200 127 -201 120 -201 c 0
 98 -201 73 -195 50 -189 c 1
EndSplineSet
Colour: ffda6b
EndChar

StartChar: _.sing.hezare
Encoding: 65661 -1 121
GlifName: _.sing.hezare
Width: 222
VWidth: 1197
GlyphClass: 2
Flags: HMW
LayerCount: 2
Fore
SplineSet
50 900 m 1
 172 900 l 1
 130 700 l 1
 91 700 l 1
 50 900 l 1
EndSplineSet
Colour: ffda6b
EndChar

StartChar: _.sing.darsad
Encoding: 65662 -1 122
GlifName: _.sing.darsad
Width: 620
VWidth: 1197
GlyphClass: 2
Flags: HMW
LayerCount: 2
Fore
SplineSet
50 88 m 1
 471 736 l 1
 570 709 l 1
 147 63 l 1
 50 88 l 1
94 661 m 1
 112 698 133 732 155 763 c 1
 173 753 267 703 267 677 c 0
 267 661 249 628 216 580 c 1
 145 629 104 656 94 661 c 1
371 132 m 1
 389 166 411 201 434 234 c 1
 508 191 545 160 545 139 c 0
 545 132 527 102 493 52 c 1
 425 98 386 125 371 132 c 1
EndSplineSet
Colour: ffda6b
EndChar

StartChar: _.sing.mosavi
Encoding: 65663 -1 123
GlifName: _.sing.mosavi
Width: 488
VWidth: 1197
GlyphClass: 2
Flags: HMW
LayerCount: 2
Fore
SplineSet
50 124 m 1
 50 194 l 1
 438 194 l 1
 438 124 l 1
 50 124 l 1
50 300 m 1
 50 370 l 1
 438 370 l 1
 438 300 l 1
 50 300 l 1
EndSplineSet
Colour: ffda6b
EndChar

StartChar: _.sing.5par
Encoding: 65664 -1 124
GlifName: _.sing.5par
Width: 503
VWidth: 1197
GlyphClass: 2
Flags: HMW
LayerCount: 2
Fore
SplineSet
287 714 m 1
 287 660 l 2
 287 624 285 588 281 555 c 1
 313 566 348 583 379 593 c 2
 431 609 l 1
 453 543 l 1
 420 532 388 521 352 512 c 0
 335 507 316 503 299 498 c 1
 311 484 323 472 334 458 c 0
 358 428 376 403 398 373 c 1
 341 332 l 1
 320 361 299 388 279 418 c 0
 270 433 261 448 252 463 c 1
 232 434 214 403 194 375 c 2
 162 332 l 1
 106 373 l 1
 137 417 l 1
 148 429 158 443 170 458 c 0
 181 472 192 484 203 498 c 1
 170 508 134 514 102 525 c 2
 50 543 l 1
 73 609 l 1
 107 598 139 589 172 575 c 0
 188 569 206 561 222 555 c 1
 221 573 219 591 218 609 c 0
 218 626 217 644 217 660 c 2
 217 714 l 1
 287 714 l 1
EndSplineSet
Colour: ffda6b
EndChar

StartChar: _.beh_k.init
Encoding: 65665 -1 125
GlifName: _.beh_k.init
Width: 302
VWidth: 1197
GlyphClass: 2
UnlinkRmOvrlpSave: 1
Flags: HMW
LayerCount: 2
Fore
SplineSet
-50 49 m 0
 -50 76 -27 100 -1 100 c 2
 4 100 l 2
 58 100 124 111 158 139 c 1
 158 141 158 143 158 146 c 0
 158 196 146 263 110 356 c 1
 186 421 l 1
 223 321 238 245 238 187 c 0
 238 85 191 38 127 16 c 1
 127 17 l 1
 86 3 42 0 -1 -0 c 0
 -25 0 -50 24 -50 49 c 0
EndSplineSet
Colour: ffda6b
EndChar

StartChar: _.beh_k.medi
Encoding: 65666 -1 126
GlifName: _.beh_k.medi
Width: 389
VWidth: 1304
GlyphClass: 2
UnlinkRmOvrlpSave: 1
Flags: HMW
LayerCount: 2
Fore
SplineSet
-50 50 m 0
 -50 75 -26 100 -1 100 c 0
 37 100 77 104 114 116 c 0
 151 129 155 145 155 190 c 0
 155 200 154 211 154 224 c 2
 154 320 l 1
 234 340 l 1
 234 204 l 2
 234 183 233 162 228 140 c 1
 267 107 340 100 389 100 c 1
 389 -0 l 1
 286 0 227 27 194 66 c 1
 162 27 102 0 0 -0 c 2
 -1 -0 l 1
 -26 1 -50 24 -50 50 c 0
EndSplineSet
Colour: ffda6b
EndChar

StartChar: _.sing.3noqte
Encoding: 65667 -1 127
GlifName: _.sing.3noqte
Width: 767
VWidth: 1304
GlyphClass: 2
Flags: HMW
LayerCount: 2
Fore
SplineSet
50 136 m 1
 128 214 l 1
 205 136 l 1
 128 59 l 1
 50 136 l 1
300 136 m 1
 377 214 l 1
 454 136 l 1
 377 59 l 1
 300 136 l 1
562 136 m 1
 640 214 l 1
 717 136 l 1
 640 59 l 1
 562 136 l 1
EndSplineSet
Colour: ffda6b
EndChar

StartChar: s.khat_tire
Encoding: 8208 8208 138
GlifName: s.khat_tire
Width: 504
VWidth: 0
GlyphClass: 2
Flags: HMW
LayerCount: 2
Fore
SplineSet
55 229 m 1
 55 307 l 1
 451 307 l 1
 451 229 l 1
 55 229 l 1
EndSplineSet
Colour: d7d7d7
EndChar

StartChar: s.zwj
Encoding: 8205 8205 174
GlifName: s.zwj
Width: 0
VWidth: 1331
GlyphClass: 2
Flags: HMW
LayerCount: 2
Fore
SplineSet
25 -327 m 1
 -25 -327 l 1
 -25 579 l 1
 -111 491 l 1
 -141 521 l 1
 -30 631 l 1
 -141 740 l 1
 -111 772 l 1
 0 660 l 1
 111 772 l 1
 141 740 l 1
 30 631 l 1
 141 521 l 1
 111 491 l 1
 25 579 l 1
 25 -327 l 1
EndSplineSet
Colour: d7d7d7
EndChar

StartChar: s.tagsim
Encoding: 247 247 182
GlifName: s.tagsim
Width: 564
VWidth: 1278
GlyphClass: 2
Flags: HMW
LayerCount: 2
Fore
SplineSet
59 352 m 1
 59 429 l 1
 506 429 l 1
 506 352 l 1
 59 352 l 1
234 204 m 1
 234 299 l 1
 330 299 l 1
 330 204 l 1
 234 204 l 1
234 482 m 1
 234 577 l 1
 330 577 l 1
 330 482 l 1
 234 482 l 1
EndSplineSet
Colour: d7d7d7
EndChar

StartChar: s.zwnj
Encoding: 8204 8204 215
GlifName: s.zwnj
Width: 0
VWidth: 1331
GlyphClass: 2
Flags: HMW
LayerCount: 2
Fore
SplineSet
-25 -308 m 1
 -25 710 l 1
 25 710 l 1
 25 -308 l 1
 -25 -308 l 1
EndSplineSet
Colour: d7d7d7
EndChar

StartChar: s.dotted_circle
Encoding: 9676 9676 220
GlifName: s.dotted_circle
Width: 576
VWidth: 1890
GlyphClass: 2
Flags: HMW
LayerCount: 2
Fore
SplineSet
60 181 m 128
 60 196 67 203 82 203 c 128
 97 203 104 196 104 182 c 2
 104 180 l 2
 104 166 97 159 82 159 c 128
 67 159 60 166 60 181 c 128
76 103 m 128
 76 118 83 126 98 126 c 128
 113 126 120 118 120 103 c 128
 120 88 113 80 98 80 c 128
 83 80 76 88 76 103 c 128
76 259 m 128
 76 274 83 282 98 282 c 128
 113 282 120 274 120 259 c 128
 120 244 113 236 99 236 c 0
 84 236 76 244 76 259 c 128
120 34 m 128
 120 49 127 56 142 57 c 0
 157 56 164 49 165 34 c 0
 164 19 157 12 142 12 c 128
 127 12 120 19 120 34 c 128
120 326 m 128
 120 341 127 348 142 349 c 0
 157 348 164 341 165 326 c 0
 164 311 157 304 142 304 c 128
 127 304 120 311 120 326 c 128
187 -8 m 128
 187 7 195 14 210 14 c 128
 225 14 233 7 233 -8 c 128
 233 -23 225 -30 210 -30 c 128
 195 -30 187 -23 187 -8 c 128
187 372 m 128
 187 387 195 394 210 394 c 128
 225 394 233 387 233 372 c 128
 233 357 225 350 210 350 c 128
 195 350 187 357 187 372 c 128
310 -26 m 128
 310 -41 303 -48 288 -48 c 128
 273 -48 266 -41 265 -26 c 0
 266 -11 273 -4 288 -3 c 0
 303 -4 310 -11 310 -26 c 128
288 410 m 128
 303 410 310 403 310 388 c 128
 310 373 303 366 288 365 c 0
 273 366 266 373 265 388 c 0
 266 403 273 410 288 410 c 128
344 -8 m 0
 344 7 352 14 367 14 c 128
 382 14 390 7 390 -8 c 0
 390 -23 382 -30 367 -31 c 0
 352 -30 344 -23 344 -8 c 0
344 372 m 0
 344 387 352 394 367 394 c 128
 382 394 390 387 390 372 c 0
 390 357 382 350 367 349 c 0
 352 350 344 357 344 372 c 0
412 34 m 128
 412 49 419 56 434 57 c 0
 449 56 456 49 456 34 c 128
 456 19 449 12 434 12 c 128
 419 12 412 19 412 34 c 128
412 326 m 128
 412 341 419 348 434 349 c 0
 449 348 456 341 456 326 c 128
 456 311 449 304 434 304 c 128
 419 304 412 311 412 326 c 128
456 103 m 128
 456 118 463 126 478 126 c 0
 493 126 500 118 501 103 c 0
 500 88 493 80 478 80 c 0
 463 80 456 88 456 103 c 128
456 259 m 128
 456 274 463 282 478 282 c 0
 493 282 500 274 501 259 c 0
 500 244 493 236 478 236 c 0
 463 236 456 244 456 259 c 128
472 181 m 128
 472 196 479 203 494 203 c 128
 509 203 516 196 517 182 c 1
 517 180 l 1
 516 166 509 159 494 159 c 128
 479 159 472 166 472 181 c 128
EndSplineSet
Colour: d7d7d7
EndChar

StartChar: s.figure_dash
Encoding: 8210 8210 224
GlifName: s.figure_dash
Width: 600
VWidth: 0
GlyphClass: 2
Flags: HMW
LayerCount: 2
Fore
SplineSet
55 229 m 1
 55 307 l 1
 547 307 l 1
 547 229 l 1
 55 229 l 1
EndSplineSet
Colour: d7d7d7
EndChar

StartChar: s.khat_amoodi
Encoding: 124 124 255
GlifName: s.khat_amoodi
Width: 222
VWidth: 1331
GlyphClass: 2
Flags: HMW
LayerCount: 2
Fore
SplineSet
88 158 m 1
 136 158 l 1
 136 -236 l 1
 88 -236 l 1
 88 158 l 1
88 290 m 1
 88 684 l 1
 136 684 l 1
 136 290 l 1
 88 290 l 1
EndSplineSet
Colour: d7d7d7
EndChar

StartChar: s.em_dash
Encoding: 8212 8212 263
GlifName: s.em_dash
Width: 1200
VWidth: 1175
GlyphClass: 2
Flags: HMW
LayerCount: 2
Fore
SplineSet
55 229 m 1
 55 307 l 1
 1147 307 l 1
 1147 229 l 1
 55 229 l 1
EndSplineSet
Colour: d7d7d7
EndChar

StartChar: s.Setareh
Encoding: 42 42 277
GlifName: s.S_etareh
Width: 455
VWidth: 1331
GlyphClass: 2
Flags: HMW
LayerCount: 2
Fore
SplineSet
114 357 m 0
 101 357 75 382 75 395 c 0
 75 402 78 408 83 413 c 2
 140 472 l 1
 55 472 l 2
 40 472 33 479 33 492 c 2
 33 522 l 2
 33 526 51 539 55 539 c 2
 138 539 l 1
 79 598 l 1
 72 602 69 607 69 612 c 0
 69 617 71 624 76 631 c 1
 98 649 l 2
 101 652 105 654 110 654 c 0
 115 654 121 651 126 645 c 2
 189 585 l 1
 189 677 l 2
 189 682 202 695 207 695 c 2
 236 695 l 2
 248 695 254 689 254 677 c 2
 254 586 l 1
 318 649 l 1
 323 656 327 660 330 660 c 0
 333 660 340 658 352 654 c 1
 366 631 l 1
 375 626 375 617 366 602 c 1
 306 539 l 1
 396 539 l 2
 401 539 416 527 416 522 c 2
 416 492 l 2
 416 484 404 472 396 472 c 2
 299 472 l 1
 366 413 l 1
 373 401 373 389 366 378 c 1
 360 372 355 369 348 362 c 128
 344 358 339 356 333 356 c 0
 327 356 322 358 318 362 c 2
 254 422 l 1
 254 337 l 2
 254 324 248 318 236 318 c 2
 207 318 l 2
 197 318 189 327 189 337 c 2
 189 422 l 1
 132 362 l 1
 127 359 121 357 114 357 c 0
EndSplineSet
Colour: d7d7d7
EndChar

StartChar: s.bullet
Encoding: 8226 8226 278
GlifName: s.bullet
Width: 602
VWidth: 1331
GlyphClass: 2
Flags: HMW
LayerCount: 2
Fore
SplineSet
532 432 m 0
 532 307 427 202 302 202 c 0
 189 202 77 305 77 410 c 0
 77 564 184 650 295 650 c 4
 442 650 532 564 532 432 c 0
EndSplineSet
Colour: d7d7d7
EndChar

StartChar: s.manfi
Encoding: 45 45 283
GlifName: s.manfi
Width: 504
VWidth: 1331
GlyphClass: 2
Flags: HMW
LayerCount: 2
Fore
SplineSet
55 229 m 1
 55 307 l 1
 451 307 l 1
 451 229 l 1
 55 229 l 1
EndSplineSet
Colour: d7d7d7
EndChar

StartChar: s.en_dash
Encoding: 8211 8211 310
GlifName: s.en_dash
Width: 600
VWidth: 1175
GlyphClass: 2
Flags: HMW
LayerCount: 2
Fore
SplineSet
55 229 m 1
 55 307 l 1
 547 307 l 1
 547 229 l 1
 55 229 l 1
EndSplineSet
Colour: d7d7d7
EndChar

StartChar: s.horizontal_bar
Encoding: 8213 8213 316
GlifName: s.horizontal_bar
Width: 2400
VWidth: 1175
GlyphClass: 2
Flags: HMW
LayerCount: 2
Fore
SplineSet
55 229 m 1
 55 307 l 1
 2347 307 l 1
 2347 229 l 1
 55 229 l 1
EndSplineSet
Colour: d7d7d7
EndChar

StartChar: s.lrm
Encoding: 8206 8206 317
GlifName: s.lrm
Width: 0
VWidth: 1331
GlyphClass: 2
Flags: HMW
LayerCount: 2
Fore
SplineSet
-25 -308 m 1
 -25 676 l 1
 196 676 l 1
 106 759 l 1
 138 790 l 1
 280 651 l 1
 138 510 l 1
 106 544 l 1
 196 628 l 1
 22 628 l 1
 22 -308 l 1
 -25 -308 l 1
EndSplineSet
Colour: d7d7d7
EndChar

StartChar: s.zarb
Encoding: 215 215 331
GlifName: s.zarb
Width: 520
VWidth: 1279
GlyphClass: 2
Flags: HMW
LayerCount: 2
Fore
SplineSet
59 246 m 1
 204 391 l 1
 60 536 l 1
 115 593 l 1
 261 448 l 1
 405 593 l 1
 461 536 l 1
 317 391 l 1
 462 247 l 1
 405 190 l 1
 260 336 l 1
 115 190 l 1
 59 246 l 1
EndSplineSet
Colour: d7d7d7
EndChar

StartChar: s.rlm
Encoding: 8207 8207 346
GlifName: s.rlm
Width: 0
VWidth: 1331
GlyphClass: 2
Flags: HMW
LayerCount: 2
Fore
SplineSet
22 676 m 1
 22 -308 l 1
 -25 -308 l 1
 -25 628 l 1
 -196 628 l 1
 -108 544 l 1
 -138 510 l 1
 -280 651 l 1
 -138 790 l 1
 -108 759 l 1
 -196 676 l 1
 22 676 l 1
EndSplineSet
Colour: d7d7d7
EndChar

StartChar: l.laa.isol
Encoding: 65275 65275 351
GlifName: l.laa.isol
Width: 567
VWidth: 1197
GlyphClass: 3
Flags: HMW
AnchorPoint: "up" 78 763 basechar 0
AnchorPoint: "down" 124 -116 basechar 0
LayerCount: 2
Fore
SplineSet
503 170 m 1
 503 150 l 1
 502 44 418 30 151 -41 c 1
 109 39 l 1
 187 55 411 113 436 152 c 1
 404 780 l 1
 484 800 l 1
 503 170 l 1
213 119 m 1
 154 100 l 1
 64 650 l 1
 143 670 l 1
 213 119 l 1
EndSplineSet
Ligature2: "rligRequiredLigaturesinArabiclo subtable" g.lam.init g.alef.fina
Ligature2: "'rlig' Required Ligatures in Arabic lookup 4-1" g.lam.init g.alef.fina
LCarets2: 1 0
Colour: d7d7d7
EndChar

StartChar: l.laa.fina
Encoding: 65276 65276 393
GlifName: l.laa.fina
Width: 657
VWidth: 1197
GlyphClass: 3
UnlinkRmOvrlpSave: 1
Flags: HMW
AnchorPoint: "up" 104 806 basechar 0
AnchorPoint: "down" 200 -100 basechar 0
LayerCount: 2
Fore
SplineSet
503 170 m 1
 503 150 l 1
 533 116 584 100 636 100 c 2
 657 100 l 1
 656 0 l 1
 636 0 l 2
 570 0 504 22 466 66 c 1
 419 28 323 6 151 -41 c 1
 109 39 l 1
 187 55 411 113 436 152 c 1
 404 780 l 1
 484 800 l 1
 503 170 l 1
213 119 m 1
 154 100 l 1
 64 650 l 1
 143 670 l 1
 213 119 l 1
EndSplineSet
Ligature2: "rligRequiredLigaturesinArabiclo subtable" g.lam.medi g.alef.fina
Ligature2: "'rlig' Required Ligatures in Arabic lookup 4-1" g.lam.medi g.alef.fina
LCarets2: 1 0
Colour: d7d7d7
EndChar

StartChar: _.mark.he_yeh
Encoding: 65668 -1 400
GlifName: _.mark.he_yeh
Width: 209
VWidth: 1304
GlyphClass: 1
UnlinkRmOvrlpSave: 1
Flags: HMW
LayerCount: 2
Fore
SplineSet
192 90 m 2
 192 99 149 109 141 109 c 0
 122 114 113 124 113 141 c 0
 113 176 135 207 178 234 c 0
 191 241 202 245 210 245 c 1
 210 200 l 1
 186 200 165 187 147 162 c 1
 145 156 l 2
 145 153 156 146 180 138 c 128
 204 130 218 124 221 120 c 128
 224 116 226 107 226 92 c 128
 226 77 219 62 206 49 c 0
 169 12 101 -6 0 -6 c 1
 17 42 l 1
 96 42 150 53 178 75 c 0
 187 82 192 87 192 89 c 2
 192 90 l 2
EndSplineSet
EndChar

StartChar: uni0000
Encoding: 0 0 401
GlifName: uni0000
Width: 497
VWidth: 0
GlyphClass: 2
Flags: HMW
LayerCount: 2
Fore
SplineSet
59 -251 m 1
 59 709 l 1
 438 709 l 1
 438 -251 l 1
 59 -251 l 1
105 -181 m 1
 387 -181 l 1
 387 648 l 1
 105 648 l 1
 105 -181 l 1
EndSplineSet
EndChar

StartChar: _.ghaf.medi
Encoding: 65669 -1 402
GlifName: _.ghaf.medi
Width: 561
VWidth: 0
GlyphClass: 2
Flags: HMW
LayerCount: 2
Fore
SplineSet
-50 50 m 0
 -50 76 -26 100 0 100 c 2
 110 100 l 2
 168 100 250 110 275 152 c 1
 277 269 88 401 -1 466 c 1
 42 565 l 1
 462 715 l 1
 417 615 l 1
 110 505 l 1
 179 451 241 400 284 341 c 0
 315 302 349 254 388 197 c 1
 419 156 l 2
 455 108 490 100 561 100 c 1
 561 -0 l 1
 442 0 382 37 334 116 c 1
 306 15 193 0 111 -0 c 2
 -1 -0 l 2
 -26 0 -50 24 -50 50 c 0
60 649 m 1
 76 710 l 1
 385 821 l 1
 372 766 l 1
 60 649 l 1
EndSplineSet
Colour: ffda6b
EndChar

StartChar: _.ghaf.init
Encoding: 65670 -1 403
GlifName: _.ghaf.init
Width: 526
VWidth: 0
GlyphClass: 2
Flags: HMW
LayerCount: 2
Fore
SplineSet
-50 50 m 0
 -50 76 -26 100 0 100 c 2
 110 100 l 2
 168 100 250 110 275 152 c 1
 277 269 89 400 0 465 c 1
 42 565 l 1
 462 715 l 1
 417 615 l 1
 110 505 l 1
 236 405 341 317 341 168 c 0
 341 20 206 0 111 -0 c 2
 -1 -0 l 2
 -26 0 -50 24 -50 50 c 0
60 649 m 1
 76 710 l 1
 385 821 l 1
 372 766 l 1
 60 649 l 1
EndSplineSet
Colour: ffda6b
EndChar

StartChar: l.allah.ref1
Encoding: 65671 -1 404
Width: 1300
VWidth: 0
GlyphClass: 2
Flags: H
HStem: 0 100<416.807 535.903 655.019 731>
VStem: 560 71<124 315.817>
LayerCount: 2
Fore
SplineSet
410 50 m 0
 412 73 434 100 460 100 c 0
 524 100 557 132 560 196 c 1
 530 591 l 1
 612 668 l 1
 631 200 l 1
 631 196 l 1
 633 132 666 100 731 100 c 1
 731 0 l 1
 669 0 624 19 596 58 c 1
 567 19 522 0 460 0 c 0
 436 0 410 26 410 50 c 0
EndSplineSet
Comment: "l.allah had both contours and references, so the contours were moved into this glyph, and a reference to it was added in the original."
Colour: ff8080
EndChar

StartChar: _.la.isol.fa
Encoding: 65673 -1 408
Width: 567
VWidth: 1197
Flags: HW
LayerCount: 2
Fore
SplineSet
503 170 m 5
 503 150 l 5
 502 44 418 30 151 -41 c 5
 109 39 l 5
 187 55 411 113 436 152 c 5
 404 780 l 5
 484 800 l 5
 503 170 l 5
213 119 m 5
 154 100 l 5
 64 650 l 5
 143 670 l 5
 213 119 l 5
EndSplineSet
Colour: ffda6b
EndChar

StartChar: _.la.fina.fa
Encoding: 65674 -1 409
Width: 657
VWidth: 1197
Flags: HW
LayerCount: 2
Fore
SplineSet
503 170 m 5
 503 150 l 5
 533 116 584 100 636 100 c 6
 657 100 l 5
 656 0 l 5
 636 0 l 6
 570 0 504 22 466 66 c 5
 419 28 323 6 151 -41 c 5
 109 39 l 5
 187 55 411 113 436 152 c 5
 404 780 l 5
 484 800 l 5
 503 170 l 5
213 119 m 5
 154 100 l 5
 64 650 l 5
 143 670 l 5
 213 119 l 5
EndSplineSet
Colour: ffda6b
EndChar

